<?xml version="1.0" encoding="UTF-8" standalone="no"?>
<!-- Created with Inkscape (http://www.inkscape.org/) -->

<svg
   version="1.1"
   id="svg1"
   width="650"
   height="651"
   viewBox="0 0 650 651"
   sodipodi:docname="Kyron_new_maple_logo.svg"
   inkscape:version="1.4.2 (f4327f4, 2025-05-13)"
   xmlns:inkscape="http://www.inkscape.org/namespaces/inkscape"
   xmlns:sodipodi="http://sodipodi.sourceforge.net/DTD/sodipodi-0.dtd"
   xmlns:xlink="http://www.w3.org/1999/xlink"
   xmlns="http://www.w3.org/2000/svg"
   xmlns:svg="http://www.w3.org/2000/svg">
  <defs
     id="defs1">
    <linearGradient
       id="linearGradient11"
       inkscape:collect="always">
      <stop
         style="stop-color:#00f1ff;stop-opacity:1;"
         offset="0"
         id="stop11" />
      <stop
         style="stop-color:#33a71c;stop-opacity:1;"
         offset="0.3306011"
         id="stop12" />
    </linearGradient>
    <linearGradient
       id="linearGradient9"
       inkscape:collect="always">
      <stop
         style="stop-color:#000c1e;stop-opacity:0.82882881;"
         offset="0"
         id="stop9" />
      <stop
         style="stop-color:#75ceff;stop-opacity:1;"
         offset="1"
         id="stop10" />
    </linearGradient>
    <linearGradient
       inkscape:collect="always"
       xlink:href="#linearGradient9"
       id="linearGradient10"
       x1="-77.928177"
       y1="242.1768"
       x2="587.45856"
       y2="582.66302"
       gradientUnits="userSpaceOnUse" />
    <linearGradient
       inkscape:collect="always"
       xlink:href="#linearGradient11"
       id="linearGradient12"
       x1="492.8371"
       y1="406.24289"
       x2="2123.106"
       y2="-3353.7227"
       gradientUnits="userSpaceOnUse"
       gradientTransform="translate(-312.97358,160.96903)" />
  </defs>
  <sodipodi:namedview
     id="namedview1"
     pagecolor="#d0e1e2"
     bordercolor="#323232"
     borderopacity="0.24705882"
     inkscape:showpageshadow="false"
     inkscape:pageopacity="0.0"
     inkscape:pagecheckerboard="false"
     inkscape:deskcolor="#d1d1d1"
     showborder="false"
     borderlayer="false"
     inkscape:zoom="0.58979874"
     inkscape:cx="275.51771"
     inkscape:cy="273.82222"
     inkscape:window-width="1366"
     inkscape:window-height="745"
     inkscape:window-x="-8"
     inkscape:window-y="-8"
     inkscape:window-maximized="1"
     inkscape:current-layer="svg1" />
  <path
     style="fill:url(#linearGradient10);fill-opacity:1"
     d="m 177.85595,565.92533 c -2.77604,-1.59199 -6.71354,-4.73881 -8.75,-6.99293 -2.03646,-2.25411 -3.70265,-4.84446 -3.70265,-5.75633 0,-0.91187 5.36501,-7.09808 11.92224,-13.74712 6.55724,-6.64905 16.03272,-16.444 21.05663,-21.76656 5.02391,-5.32256 13.01264,-14.31536 17.75271,-19.98399 4.74008,-5.66864 10.95343,-13.91382 13.80744,-18.32262 2.85401,-4.4088 7.23873,-11.84101 9.74382,-16.51601 2.50509,-4.675 6.20126,-12.2525 8.21371,-16.83889 2.01245,-4.58639 3.46818,-8.52972 3.23494,-8.76295 -0.23323,-0.23323 -3.03091,0.72881 -6.21705,2.13788 -3.18615,1.40906 -8.31782,3.29638 -11.40372,4.19403 -4.5519,1.3241 -10.89471,1.65108 -33.61072,1.73269 -25.26781,0.0908 -28.84764,0.31375 -36.68675,2.28514 -4.77772,1.20151 -11.52544,3.33802 -14.99494,4.7478 -3.4695,1.40978 -7.97157,3.89998 -10.00461,5.53377 -2.03303,1.63379 -3.89043,2.97053 -4.12756,2.97053 -0.23712,0 0.92124,-3.9375 2.57414,-8.75 2.49886,-7.27556 3.02502,-10.43803 3.12249,-18.76755 0.11023,-9.41955 -0.0789,-10.41608 -3.16767,-16.69361 -1.97828,-4.02056 -4.76265,-7.84483 -7,-9.61438 -2.04331,-1.61608 -5.98179,-4.27328 -8.75218,-5.9049 -2.7704,-1.63162 -7.88136,-3.9509 -11.3577,-5.15396 -3.47633,-1.20306 -9.943347,-2.67493 -14.371137,-3.27081 -4.4278,-0.59589 -11.52503,-0.8823 -15.77164,-0.63647 l -7.72109,0.44697 5.48967,-6.47119 c 3.01932,-3.55915 6.78967,-9.21909 8.37854,-12.57764 1.78378,-3.77053 2.88917,-7.74451 2.88965,-10.38858 4.4e-4,-2.35516 -0.61261,-5.7502 -1.36233,-7.54452 -0.74972,-1.79433 -3.50426,-5.14712 -6.12121,-7.45065 -2.61695,-2.30354 -9.38041,-6.4569 -15.02989,-9.22969 -5.64949,-2.77279 -15.60745,-6.99171 -22.12879,-9.37537 -6.52134,-2.38367 -18.83199,-6.24935 -27.35699,-8.59042 -8.5249999,-2.34106 -16.17499991,-4.52102 -16.99999991,-4.84436 -0.82499999,-0.32333 7.28852001,-0.88372 18.03004991,-1.24532 10.74152,-0.36159 22.66652,-0.982 26.5,-1.37867 3.83347,-0.39668 11.30637,-1.55022 16.60643,-2.56342 5.30007,-1.0132 11.89329,-2.81304 14.65161,-3.99964 2.75833,-1.1866 5.9102,-3.13358 7.00416,-4.32664 1.09397,-1.19305 2.47278,-4.48173 3.06403,-7.30818 0.68923,-3.29485 0.75831,-7.06282 0.1925,-10.5 -0.48538,-2.94855 -1.83123,-7.56219 -2.99077,-10.25253 -1.15955,-2.69035 -1.98446,-5.01282 -1.83314,-5.16106 0.15132,-0.14823 4.84661,2.60648 10.43396,6.12159 5.58735,3.51512 15.937347,9.26573 22.999997,12.77914 7.06264,3.51342 15.99117,7.55627 19.84117,8.98413 3.85,1.42786 9.025,3.05122 11.5,3.60747 2.475,0.55626 6.68199,1.02237 9.34887,1.03582 2.66688,0.0134 6.3992,-0.71124 8.29405,-1.6104 1.89485,-0.89917 4.10036,-2.90182 4.90113,-4.45034 0.80077,-1.54852 1.45595,-4.11597 1.45595,-5.70543 0,-1.58947 -1.42411,-5.73984 -3.16468,-9.22304 -2.1328,-4.26811 -5.96404,-9.15113 -11.75,-14.97573 -4.72193,-4.75344 -12.10949,-11.43114 -16.41681,-14.83932 -4.30732,-3.40818 -12.18232,-9.27388 -17.5,-13.0349 -5.31768,-3.76102 -14.57206,-9.9276 -20.5653,-13.70351 l -10.896797,-6.86529 8.43691,-1.6606 c 4.640297,-0.91331 10.668857,-2.80214 13.396797,-4.19739 2.72793,-1.39524 6.61452,-4.26318 8.63686,-6.3732 2.02234,-2.11002 4.43453,-5.75097 5.36043,-8.09101 1.15117,-2.90938 1.46404,-5.42413 0.98953,-7.95349 -0.38165,-2.03438 -1.62133,-5.5198 -2.75483,-7.74538 -1.1335,-2.22559 -5.25843,-7.37412 -9.16651,-11.44119 -3.90808,-4.06707 -11.3806,-10.59637 -16.605597,-14.50957 -5.225,-3.91319 -11.67282,-8.38776 -14.3285,-9.94349 -2.65568,-1.55572 -4.68068,-2.97378 -4.5,-3.15124 0.18068,-0.17746 3.48031,0.7359 7.33252,2.02968 3.85221,1.29378 10.06318,2.84103 13.80216,3.43833 3.738977,0.59731 9.039987,0.78862 11.780027,0.42514 3.0118,-0.39953 6.47121,-1.73974 8.74807,-3.38909 2.53412,-1.83571 4.15868,-4.03823 4.96596,-6.73267 0.65987,-2.20245 1.19976,-7.84503 1.19976,-12.53906 0,-4.69404 -0.87593,-13.64183 -1.94651,-19.88398 -1.07057,-6.242162 -3.33889,-16.749382 -5.0407,-23.349382 -1.70181,-6.6 -4.45833,-16.43004 -6.12561,-21.84454 -1.66728,-5.41451 -2.83728,-10.03869 -2.6,-10.275968 0.23728,-0.237279 3.06312,3.067768 6.27964,7.344548 3.21653,4.27678 9.68443,12.50096 14.37311,18.27596 4.68869,5.775 13.01833,15.14165 18.51033,20.81478 5.49199,5.673122 12.96481,12.752282 16.60625,15.731452 3.64144,2.97918 9.19489,6.59514 12.341,8.03548 4.42543,2.02603 6.55568,2.46607 9.41134,1.94405 2.03013,-0.3711 5.50663,-1.72833 7.72556,-3.01605 2.21892,-1.28773 6.07557,-4.5235 8.57033,-7.1906 2.49477,-2.6671 6.33395,-8.44249 8.53152,-12.834192 2.19756,-4.39171 4.61034,-9.55992 5.36171,-11.48492 1.25894,-3.22537 1.42238,-2.00915 2.08285,15.500002 0.39419,10.45 1.45996,25.525 2.36838,33.5 0.90842,7.975 2.52359,18.70842 3.58928,23.85204 1.06568,5.14362 2.89409,12.56862 4.06313,16.5 1.16904,3.93138 3.24678,9.39796 4.61719,12.14796 1.37042,2.75 3.90682,6.5009 5.63644,8.33532 1.72962,1.83443 4.35991,3.97193 5.8451,4.75 1.48519,0.77808 4.34218,1.41468 6.34888,1.41468 2.00669,0 5.16847,-0.72125 7.02616,-1.60279 1.8577,-0.88153 5.02437,-3.42552 7.03703,-5.6533 2.01267,-2.22779 5.1556,-7.28886 6.9843,-11.24683 1.82869,-3.95796 4.47696,-11.17184 5.88504,-16.03082 1.40808,-4.85899 3.45724,-13.81416 4.55369,-19.90039 1.09645,-6.08623 2.51303,-17.45097 3.14796,-25.25499 l 1.15441,-14.18912 8.16499,8.29468 c 5.792,5.884 10.07164,9.23333 14.7254,11.52437 4.25722,2.09582 8.61621,3.40077 12.41612,3.71702 4.79542,0.39909 6.66909,0.0668 10.34795,-1.83525 2.5873,-1.33768 6.08924,-4.44285 8.25823,-7.32258 2.07129,-2.75 5.08111,-8.39217 6.68849,-12.53817 1.60739,-4.14599 3.8515,-11.08491 4.98692,-15.419832 1.13542,-4.33491 2.79383,-13.53827 3.68535,-20.4519 0.89152,-6.91364 1.41101,-15.84152 1.15442,-19.83973 l -0.46652,-7.26947 5.69328,5.43047 c 3.13131,2.98676 7.39395,6.14106 9.47255,7.00955 2.0786,0.8685 5.6816,1.57908 8.00666,1.57908 2.96414,0 5.43652,-0.82177 8.27362,-2.75 2.22542,-1.5125 5.72859,-4.775 7.78483,-7.249997 2.05623,-2.475 5.85009,-7.65 8.43079,-11.5 2.58071,-3.85 7.64075,-12.175 11.24455,-18.5 3.60379,-6.325 8.18751,-14.7624983 10.18603,-18.7499983 1.99853,-3.98750005 3.80375,-7.25 4.0116,-7.25 0.20786,0 -0.89535,5.0625 -2.45158,11.25 -1.55622,6.1875003 -3.61022,15.5249983 -4.56445,20.7499983 -1.09317,5.985812 -1.74795,14.678803 -1.77008,23.5 -0.0307,12.227097 0.25003,14.718317 2.21673,19.672277 1.41625,3.56744 3.76727,7.04136 6.33571,9.36179 2.24612,2.02924 6.95256,5.03195 10.45875,6.67269 3.69623,1.72968 8.79034,3.20216 12.12336,3.50434 3.16167,0.28664 7.49327,0.0394 9.62578,-0.54951 3.66906,-1.01316 3.20777,-0.41522 -8.58935,11.133872 -6.85664,6.7125 -15.26802,15.9287 -18.69194,20.48045 -3.42392,4.55175 -7.64674,11.30175 -9.38403,15 -2.36274,5.02967 -3.16123,8.13823 -3.16867,12.3359 -0.009,4.79798 0.52056,6.41084 3.64828,11.12152 2.01204,3.03034 5.63597,7.13031 8.0532,9.11105 2.41723,1.98073 6.9324,4.76301 10.03372,6.18284 3.10132,1.41984 8.4104,3.14688 11.79797,3.83788 5.30803,1.08275 5.97006,1.45527 4.79055,2.69564 -0.75276,0.79159 -5.01982,5.48926 -9.48235,10.43926 -4.46252,4.95 -11.78187,13.95 -16.26521,20 -4.48335,6.04999 -10.34941,15.27499 -13.03569,20.49999 -2.68628,5.225 -5.60406,11.94418 -6.48395,14.9315 -0.8799,2.98733 -1.58993,8.16233 -1.57785,11.5 0.0136,3.7498 0.73616,7.64121 1.89116,10.18459 1.02805,2.26385 3.40442,5.28707 5.28081,6.71826 1.87639,1.43119 5.83444,3.12177 8.79567,3.75684 2.96122,0.63507 7.88747,0.88651 10.94722,0.55875 3.05975,-0.32776 9.83817,-1.718 15.06317,-3.08942 5.225,-1.37143 12.2,-3.56988 15.5,-4.88545 3.3,-1.31558 10.52743,-4.44115 16.06096,-6.94573 5.53352,-2.50457 14.08352,-6.69824 19,-9.31926 4.91647,-2.62101 14.87359,-8.28551 22.12693,-12.58778 7.25334,-4.30226 13.39127,-7.8223 13.63984,-7.8223 0.24858,0 -1.04346,3.4875 -2.87119,7.75 -1.82774,4.2625 -3.89463,10.56938 -4.59308,14.01528 -0.9867,4.86795 -1.01192,7.4953 -0.1131,11.78045 0.63625,3.03335 2.0956,6.83358 3.243,8.44495 1.1474,1.61138 3.47758,3.92053 5.17816,5.13146 1.70059,1.21092 5.62019,2.79679 8.71023,3.52415 3.34351,0.78702 11.76774,1.3288 20.80653,1.33809 9.45185,0.01 21.16017,-0.74779 31,-2.00566 8.69644,-1.1117 21.19633,-3.11459 27.77752,-4.45087 6.58118,-1.33627 12.1398,-2.25558 12.35248,-2.0429 0.21268,0.21268 -2.8746,2.02905 -6.86062,4.03638 -3.98602,2.00732 -13.14464,7.1708 -20.35249,11.4744 -7.20784,4.30359 -16.25517,10.05851 -20.10517,12.7887 -3.85,2.73019 -10.11798,7.83309 -13.92884,11.33978 -3.81087,3.50669 -8.19837,8.37639 -9.75,10.82157 -1.55934,2.45731 -2.82116,5.85692 -2.82116,7.60078 0,1.73525 0.51442,4.68465 1.14316,6.55422 0.62874,1.86957 3.10049,6.37985 5.49278,10.02284 2.39229,3.64299 6.4559,8.36799 9.03026,10.5 2.57435,2.13201 5.8401,4.70258 7.25722,5.71238 2.57658,1.83601 2.57658,1.83601 -2.42342,1.28158 -2.75,-0.30494 -9.5,-1.07521 -15,-1.71171 -5.5,-0.6365 -14.05,-0.90235 -19,-0.59078 -4.95,0.31157 -11.475,1.31146 -14.5,2.22198 -3.025,0.91052 -6.92232,2.72942 -8.66072,4.04201 -1.75853,1.32778 -3.91894,4.37187 -4.86984,6.86176 -1.2124,3.17464 -1.51347,5.77984 -1.03595,8.96419 0.37023,2.46892 1.98488,7.1003 3.58809,10.29196 1.60321,3.19166 5.19964,8.61551 7.99207,12.05301 2.79243,3.4375 4.84343,6.25 4.55778,6.25 -0.28565,0 -3.79358,-1.29501 -7.7954,-2.87781 -4.00182,-1.58279 -12.90103,-4.69838 -19.77603,-6.92353 -6.875,-2.22515 -16.1,-4.9462 -20.5,-6.04678 -4.4,-1.10058 -12.05,-2.77727 -17,-3.72599 -5.33367,-1.02225 -14.09213,-1.75202 -21.5,-1.79143 -10.93916,-0.0582 -13.12277,0.21632 -17.48753,2.19837 -2.74315,1.24568 -6.06365,3.25538 -7.37888,4.46602 -1.31524,1.21063 -3.00834,3.6492 -3.76246,5.41903 -0.75412,1.76984 -1.37112,4.85183 -1.37112,6.84888 0,1.99704 0.72991,5.16916 1.62203,7.04916 0.89212,1.88 3.85568,5.42642 6.5857,7.88094 2.73001,2.45452 8.1876,6.02564 12.12797,7.93583 3.94035,1.91019 11.25478,4.8356 16.25427,6.50092 4.9995,1.66532 13.9995,4.17606 20,5.57942 6.00051,1.40336 12.03502,2.80549 13.41002,3.11584 1.98735,0.44856 0.90219,1.02821 -5.29189,2.82673 -4.47543,1.29949 -9.37018,3.52321 -11.5,5.22454 -2.03946,1.62914 -4.52053,4.50507 -5.51349,6.39097 -1.24143,2.3578 -1.67999,4.88926 -1.40399,8.10401 0.22077,2.57131 1.63424,7.19495 3.14104,10.27476 1.50681,3.0798 6.72661,11.551 11.59956,18.82488 4.87295,7.27388 13.19159,18.62524 18.48588,25.22524 5.29428,6.6 10.84968,13.35 12.34533,15 1.49565,1.65 3.10799,3.63203 3.58297,4.40451 0.64258,1.04505 0.50414,1.18629 -0.5409,0.55186 -0.77248,-0.46896 -3.42951,-2.29335 -5.90451,-4.0542 -2.475,-1.76085 -10.575,-6.89357 -18,-11.40605 -7.425,-4.51248 -19.35,-11.0387 -26.5,-14.50271 -7.15,-3.464 -16.15,-7.27795 -20,-8.47544 -3.84999,-1.19748 -10.37499,-2.39106 -14.49999,-2.65239 -6.54197,-0.41446 -7.99951,-0.18074 -11.41044,1.82964 -2.64816,1.56081 -4.98464,4.24156 -7.23826,8.30478 -1.8303,3.3 -4.33925,8.925 -5.57543,12.5 -1.82329,5.27287 -2.25028,8.69351 -2.26174,18.11872 l -0.0141,11.61873 -5.62994,-10.82349 c -3.09647,-5.95291 -7.72656,-13.76163 -10.2891,-17.3527 -2.56253,-3.59107 -7.45406,-9.29406 -10.87006,-12.6733 -3.86675,-3.82516 -8.66416,-7.31884 -12.7109,-9.25664 -5.29657,-2.53628 -7.70343,-3.10098 -13,-3.05009 -4.30452,0.0414 -8.50951,0.84763 -12.44942,2.38707 -3.4903,1.36377 -7.96848,4.21322 -10.83419,6.89376 -2.68663,2.51302 -5.99243,6.45919 -7.34622,8.76927 -1.3538,2.31008 -2.91619,5.70056 -3.472,7.53441 -0.5558,1.83384 -1.3234,6.25926 -1.70578,9.83426 l -0.69524,6.5 -3.77586,-7.91124 c -2.07672,-4.35119 -5.80982,-10.76159 -8.29577,-14.24534 -2.48596,-3.48375 -8.68399,-10.78835 -13.7734,-16.23244 -5.08942,-5.44409 -12.08685,-14.10869 -15.54986,-19.25466 -3.463,-5.14598 -8.46636,-13.85632 -11.11857,-19.35632 -2.65222,-5.5 -5.80458,-12.925 -7.00525,-16.5 -1.20067,-3.575 -2.7315,-9.425 -3.40185,-13 l -1.21882,-6.5 -2.24934,6 c -1.23714,3.3 -4.50636,11.4 -7.26495,18 -2.75858,6.6 -7.91239,17.85 -11.45292,25 -3.54052,7.15 -7.8893,14.87993 -9.66394,17.17763 -1.77465,2.29769 -5.74215,7.24769 -8.81668,11 -3.07453,3.7523 -10.27453,13.87727 -16,22.49992 -5.72547,8.62265 -12.20995,18.49492 -14.40995,21.93838 -2.2,3.44345 -4.45,6.39658 -5,6.5625 -0.55,0.16592 -3.27131,-1.00087 -6.04735,-2.59287 z"
     id="path9" />
  <path
     style="fill:url(#linearGradient12);fill-opacity:1"
     d="m 179.84133,565.56021 c -1.65,-0.72325 -5.3625,-3.54006 -8.25,-6.25958 -2.8875,-2.71952 -5.25,-5.75462 -5.25,-6.74467 0,-0.99006 5.77163,-7.71713 12.82585,-14.94904 7.05422,-7.23192 16.23287,-16.74895 20.397,-21.14895 4.16414,-4.4 11.04505,-12.05 15.29093,-17 4.24588,-4.95 9.88209,-12.19009 12.5249,-16.0891 2.64282,-3.89901 6.86527,-10.57369 9.38322,-14.83263 2.51796,-4.25894 4.5781,-7.87554 4.5781,-8.0369 0,-0.16136 2.45974,-5.44848 5.46608,-11.74916 5.37638,-11.26776 5.51588,-11.44847 8.5,-11.01049 1.66866,0.2449 3.03392,0.51697 3.03392,0.60459 0,0.0876 -1.3269,3.60522 -2.94866,7.81688 -1.62177,4.21166 -4.79908,12.00511 -7.06069,17.31879 -2.26162,5.31367 -6.09272,13.90023 -8.51358,19.08123 -2.42085,5.181 -6.21995,12.48083 -8.44244,16.22184 -2.22249,3.741 -5.95198,9.04107 -8.28776,11.77793 -2.33578,2.73686 -6.72187,8.29616 -9.74687,12.35401 -3.025,4.05784 -10.675,15.47893 -17,25.3802 -6.325,9.90126 -11.95,18.13229 -12.5,18.29118 -0.55,0.15888 -2.35,-0.30287 -4,-1.02613 z M 407.26227,552.725 c -1.33152,-2.87813 -4.93722,-9.06563 -8.01268,-13.75 -3.07545,-4.68436 -7.70926,-10.85684 -10.29734,-13.71661 -2.58808,-2.85977 -6.82576,-6.75592 -9.41708,-8.65812 -2.59131,-1.9022 -7.63251,-4.44276 -11.20266,-5.6457 -4.8744,-1.64239 -7.69532,-2.02751 -11.32569,-1.54622 -2.65897,0.35251 -7.15897,1.52685 -10,2.60964 -2.84102,1.08279 -7.32649,3.55867 -9.96771,5.50196 -2.64122,1.94328 -6.13821,5.6399 -7.7711,8.21469 -1.63289,2.5748 -3.6085,6.94087 -4.39026,9.70239 -0.78175,2.76152 -1.82045,6.59594 -2.30821,8.52094 l -0.88684,3.5 -2.56484,-5.21774 c -1.41066,-2.86976 -5.07437,-8.79912 -8.14159,-13.17636 -3.06721,-4.37725 -5.25234,-8.14301 -4.85585,-8.36837 0.3965,-0.22535 0.22099,-0.29663 -0.39001,-0.15839 -0.61101,0.13825 -4.04458,-2.748 -7.63017,-6.41389 -3.58558,-3.66589 -8.85411,-9.92065 -11.70784,-13.89948 -2.98005,-4.15496 -4.88073,-7.73236 -4.46532,-8.40451 0.39981,-0.64691 0.29322,-0.90449 -0.23833,-0.57597 -0.52888,0.32686 -2.85514,-2.47428 -5.16946,-6.22476 -2.31432,-3.75048 -4.04988,-7.43589 -3.8568,-8.18979 0.19308,-0.75391 0.13856,-0.962 -0.12115,-0.46244 -0.25972,0.49957 -1.82721,-1.97543 -3.48332,-5.5 -1.6561,-3.52456 -4.08995,-9.7833 -5.40855,-13.9083 -1.3186,-4.125 -2.65061,-9.31828 -2.96002,-11.54063 -0.50979,-3.66155 -0.3111,-4.15521 2.11794,-5.26195 2.18994,-0.9978 5.2751,-0.84284 16.85723,0.84671 7.79719,1.13742 14.45342,2.3803 14.79161,2.76195 0.3382,0.38166 1.15248,3.5274 1.8095,6.99055 0.65702,3.46314 2.7423,12.01314 4.63395,19 1.89165,6.98685 5.50955,18.55337 8.03976,25.70337 2.53022,7.15 5.74262,15.475 7.13867,18.5 1.39605,3.025 2.74393,4.92237 2.99529,4.21638 0.25136,-0.70599 0.0228,-1.83099 -0.50799,-2.5 -0.53076,-0.66901 -2.32045,-5.94138 -3.97709,-11.71638 -1.65665,-5.775 -3.72378,-13.65 -4.59363,-17.5 -0.86984,-3.85 -2.50026,-11.67393 -3.62315,-17.38653 -1.1229,-5.71259 -2.32868,-13.47509 -2.67952,-17.25 -0.42741,-4.59875 -0.28546,-6.86347 0.43018,-6.86347 0.58744,0 5.26456,0.91965 10.3936,2.04367 5.12904,1.12401 14.05053,3.17483 19.82553,4.55737 5.775,1.38254 14.13789,3.61737 18.58419,4.96628 l 8.0842,2.45256 6.98169,9.74006 c 3.83993,5.35704 8.81806,12.47938 11.06251,15.82743 2.24445,3.34805 5.03202,7.84805 6.19459,10 1.16257,2.15195 2.55796,4.58763 3.10087,5.41263 0.54291,0.825 2.46076,4.2 4.2619,7.5 1.80114,3.3 4.56013,9.0546 6.13109,12.788 1.57096,3.7334 3.06972,6.57457 3.33058,6.31371 0.26086,-0.26085 -0.54175,-3.76545 -1.78356,-7.78799 -1.24182,-4.02255 -2.59095,-7.98872 -2.99807,-8.81372 -0.40711,-0.825 -3.93942,-8.12793 -7.84956,-16.22875 -3.91015,-8.10081 -9.1464,-18.17426 -11.63612,-22.38544 -2.48972,-4.21118 -4.37134,-7.81211 -4.18138,-8.00207 0.18997,-0.18997 4.14152,0.95414 8.78123,2.54245 4.63971,1.58831 15.63584,5.88945 24.43584,9.55809 8.8,3.66863 20.95,9.1707 27,12.22682 6.05,3.05612 18.3125,9.98291 27.25,15.39287 8.9375,5.40996 16.25,9.66424 16.25,9.45394 0,-0.21029 -3.02246,-2.55935 -6.71657,-5.22013 -3.69411,-2.66078 -8.17317,-5.73778 -9.95346,-6.83778 -1.78029,-1.1 -8.98964,-5.3464 -16.02078,-9.43646 -7.03115,-4.09005 -16.72709,-9.36997 -21.54654,-11.73315 -4.81946,-2.36318 -8.76169,-4.64177 -8.76051,-5.06354 10e-4,-0.42176 4.16367,-2.41849 9.25,-4.43716 5.08632,-2.01868 13.82241,-5.02752 19.41353,-6.68632 5.59112,-1.6588 13.39787,-3.46391 17.34834,-4.01136 3.95048,-0.54745 7.47592,-1.30969 7.83433,-1.69387 0.35842,-0.38419 -2.72334,-0.38526 -6.84834,-0.002 -4.125,0.38286 -11.41682,1.54198 -16.20404,2.57581 -4.78722,1.03384 -11.53722,2.79092 -15,3.90464 -3.46278,1.11371 -8.84833,2.90354 -11.96789,3.97741 -3.11957,1.07386 -6.66032,2.48144 -7.86834,3.12795 -1.76976,0.94715 -2.99895,0.83098 -6.32806,-0.59808 -2.27242,-0.97545 -6.38167,-2.744 -9.13167,-3.9301 -2.75,-1.1861 -10.4,-4.20976 -17,-6.71925 -6.6,-2.50948 -17.175,-6.1737 -23.5,-8.1427 -6.325,-1.96899 -12.73439,-3.86457 -14.24309,-4.21238 -1.5087,-0.34781 -2.51406,-1.00296 -2.23413,-1.45589 0.27992,-0.45293 5.78931,-2.84568 12.24309,-5.31724 6.45377,-2.47155 15.55913,-5.62804 20.23413,-7.01442 4.675,-1.38637 11.2,-3.19683 14.5,-4.02322 3.3,-0.8264 8.475,-1.81012 11.5,-2.18606 3.025,-0.37594 6.175,-1.10292 7,-1.61551 0.95574,-0.59383 -1.58412,-0.71384 -7,-0.33075 -4.675,0.33069 -13.2765,1.45872 -19.11445,2.50675 -5.83794,1.04803 -14.38794,2.8522 -19,4.00927 -4.61205,1.15708 -11.08555,3.00342 -14.38555,4.10297 -3.3,1.09956 -8.98273,3.12143 -12.62829,4.49305 l -6.62828,2.49384 -11.37172,-2.59027 c -6.25444,-1.42466 -17.18766,-3.69652 -24.29605,-5.04859 -7.10839,-1.35208 -13.0782,-2.61218 -13.26626,-2.80023 -0.18805,-0.18806 1.8029,-1.46231 4.42434,-2.83167 2.62144,-1.36937 10.61626,-5.63931 17.76626,-9.48875 7.15,-3.84945 17.725,-9.43425 23.5,-12.41066 5.775,-2.97641 10.65,-5.74916 10.83333,-6.16166 0.18334,-0.4125 0.80087,-0.75 1.3723,-0.75 0.57144,0 9.19644,-3.99069 19.16667,-8.86821 9.97024,-4.87751 20.6027,-10.00935 23.6277,-11.40407 3.025,-1.39472 9.1,-4.22141 13.5,-6.28153 7.64454,-3.57925 8.4221,-3.73699 17.5,-3.55011 5.225,0.10756 15.125,0.84075 22,1.6293 6.875,0.78855 15.65,2.12687 19.5,2.97404 3.85,0.84716 8.35,1.80342 10,2.12502 1.65,0.32161 8.26059,2.12439 14.6902,4.00619 6.42962,1.8818 13.40462,4.10491 15.5,4.94024 2.09539,0.83533 4.7098,1.92394 5.8098,2.41914 1.1,0.4952 6.43859,2.95003 11.86353,5.45518 5.42494,2.50515 10.09254,4.55481 10.37244,4.55481 0.27991,0 -0.0513,-0.675 -0.73597,-1.5 -0.68469,-0.825 -1.61568,-1.5 -2.06887,-1.5 -0.45319,0 -3.44756,-1.53763 -6.65415,-3.41697 -3.2066,-1.87933 -11.66821,-5.96356 -18.80358,-9.07606 -7.13537,-3.1125 -16.7984,-6.79073 -21.4734,-8.17384 -4.675,-1.38311 -9.78644,-2.9065 -11.35875,-3.38532 -1.57232,-0.47882 -8.09732,-1.98512 -14.5,-3.34734 -6.40269,-1.36223 -13.66625,-2.75369 -16.14125,-3.09215 -2.475,-0.33845 -5.80344,-0.86652 -7.39653,-1.17348 -2.69418,-0.51913 -2.41475,-0.76536 4,-3.52477 3.79309,-1.63166 8.29035,-3.59495 9.9939,-4.36285 1.70355,-0.76791 7.32855,-3.03342 12.5,-5.03448 5.17145,-2.00106 14.12763,-5.40908 19.90263,-7.57337 5.775,-2.16429 18.04049,-6.59927 27.25663,-9.8555 l 16.75664,-5.92043 25.74448,12.71828 c 14.15946,6.99506 27.01014,13.2842 28.55707,13.97587 1.86153,0.83234 2.5807,0.88238 2.12681,0.14797 -0.37718,-0.61029 -2.09335,-1.77775 -3.81371,-2.59434 -1.72035,-0.8166 -4.47792,-2.23449 -6.12792,-3.15088 -1.65,-0.91639 -9.74831,-5.48985 -17.99624,-10.16325 -8.24794,-4.6734 -16.28517,-9.19184 -17.86053,-10.04099 -1.57536,-0.84915 -2.86618,-1.97415 -2.86849,-2.5 -0.002,-0.52585 3.53493,-1.99959 7.86053,-3.27496 4.3256,-1.27538 16.18973,-4.73322 26.36473,-7.68409 10.175,-2.95088 17.825,-5.39268 17,-5.42623 -0.825,-0.0336 -8.475,1.6907 -17,3.83167 -8.525,2.14097 -18.2,4.63813 -21.5,5.54925 -3.3,0.91112 -7.8,2.2543 -10,2.98485 -2.2,0.73055 -7.375,2.33455 -11.5,3.56444 -4.125,1.2299 -11.4442,3.5328 -16.26488,5.11757 -4.82069,1.58477 -8.93705,2.8814 -9.14748,2.8814 -0.21043,0 3.18681,-6.9848 7.54941,-15.52179 4.36261,-8.53698 10.39147,-19.5778 13.39748,-24.53515 3.00601,-4.95736 5.46547,-9.22385 5.46547,-9.4811 0,-0.25725 3.15135,-5.22352 7.00299,-11.03617 3.85164,-5.81264 7.46748,-11.43634 8.03518,-12.49711 0.56771,-1.06077 0.79458,-1.92868 0.50416,-1.92868 -0.29042,0 -3.11875,3.47465 -6.28518,7.72144 -3.16643,4.24679 -6.65715,9.17873 -7.75715,10.95986 -1.1,1.78113 -5.2625,8.45152 -9.25,14.82309 -3.9875,6.37157 -7.25,11.9825 -7.25,12.46872 0,0.48622 -0.56839,1.47868 -1.26309,2.20546 -0.69471,0.72679 -3.98918,6.06222 -7.32105,11.85651 -3.33187,5.79429 -6.6934,11.97065 -7.47007,13.72525 -0.77666,1.7546 -2.54469,3.62176 -3.92895,4.14923 -1.38426,0.52747 -10.16684,3.71429 -19.51684,7.08183 -9.35,3.36753 -24.65,9.09242 -34,12.72197 -9.35,3.62954 -19.25,7.60534 -22,8.8351 -2.75,1.22977 -7.025,3.1379 -9.5,4.2403 -2.475,1.1024 -11.475,5.04141 -20,8.75335 -8.525,3.71194 -21.125,9.42925 -28,12.70513 -6.875,3.27589 -18.8,9.05368 -26.5,12.83955 -7.7,3.78586 -20.075,10.07403 -27.5,13.97372 -7.425,3.89969 -15.4125,8.14973 -17.75,9.44452 -2.3375,1.2948 -4.24846,2.27336 -4.24657,2.17458 0.002,-0.0988 1.30046,-3.32961 2.88572,-7.17961 1.58526,-3.85 4.31227,-10.15 6.06003,-14 1.74775,-3.85 3.58574,-7.9 4.08441,-9 0.49867,-1.1 3.88899,-8.975 7.53404,-17.5 3.64505,-8.525 7.21921,-16.85 7.94258,-18.5 0.72338,-1.65 2.5101,-5.74374 3.97051,-9.09721 1.94916,-4.4758 3.50146,-6.52947 5.83728,-7.7227 1.7501,-0.89402 6.332,-3.37714 10.182,-5.51806 3.85,-2.14091 10.15,-5.59785 14,-7.68209 3.85,-2.08423 17.125,-9.62259 29.5,-16.75191 12.375,-7.12932 24.525,-14.11126 27,-15.51543 2.475,-1.40416 6.55042,-3.99347 9.05649,-5.75401 2.50607,-1.76054 5.54357,-3.51426 6.75,-3.89717 1.20643,-0.38291 2.19351,-1.15516 2.19351,-1.71611 0,-0.56096 -6.1875,2.24173 -13.75,6.22819 -7.5625,3.98647 -19.825,10.30374 -27.25,14.03839 -7.425,3.73465 -22.90262,11.32216 -34.39472,16.86114 -11.4921,5.53897 -21.08578,9.87981 -21.31929,9.6463 -0.23351,-0.23351 0.0394,-1.25589 0.60656,-2.27195 0.56713,-1.01606 2.21408,-4.77238 3.6599,-8.34738 1.44582,-3.575 3.88284,-9.65 5.4156,-13.5 1.53276,-3.85 5.11413,-12.625 7.95861,-19.5 2.84448,-6.875 6.02859,-14.36284 7.07581,-16.63965 1.04722,-2.2768 2.21212,-5.4268 2.58867,-7 0.37655,-1.57319 1.00562,-3.31035 1.39793,-3.86035 0.39231,-0.55 3.11797,-7.21854 6.05702,-14.81899 5.28541,-13.66817 5.41024,-13.87191 11.43812,-18.66845 3.35192,-2.6672 9.67671,-7.06445 14.0551,-9.77166 4.37838,-2.70721 11.56069,-6.72947 15.96069,-8.93834 4.4,-2.20887 9.125,-4.36428 10.5,-4.7898 1.375,-0.42551 4.3,-1.566 6.5,-2.53442 2.2,-0.96842 6.25,-2.51794 9,-3.44338 2.75,-0.92544 6.9125,-2.17521 9.25,-2.77727 2.3375,-0.60205 4.25,-1.39646 4.25,-1.76534 0,-0.36889 -4.6125,0.54931 -10.25,2.04044 -5.6375,1.49113 -12.5,3.49273 -15.25,4.448 -2.75,0.95527 -5.45,2.08281 -6,2.50565 -0.55,0.42283 -2.125,1.11463 -3.5,1.53733 -1.375,0.42269 -6.1,2.48064 -10.5,4.57321 -4.4,2.09257 -12.05,6.25108 -17,9.24113 -4.95,2.99005 -9.13179,5.3179 -9.29286,5.17298 -0.16107,-0.14491 0.37684,-1.78169 1.19537,-3.63728 0.81852,-1.85559 2.66149,-6.52381 4.09548,-10.37381 1.43399,-3.85 3.01968,-7.9 3.52376,-9 0.50409,-1.1 3.13409,-8.075 5.84444,-15.5 2.71036,-7.425 5.95878,-16.425 7.2187,-20 1.25992,-3.575 2.82771,-7.4 3.48397,-8.5 0.65626,-1.1 1.45898,-3.125 1.78383,-4.5 0.32484,-1.375 5.44087,-7.45559 11.36896,-13.51242 5.92809,-6.05683 13.13023,-13.03182 16.00474,-15.49999 2.87452,-2.46817 7.47691,-6.06258 10.22753,-7.98758 2.75063,-1.925 5.01125,-3.88195 5.02361,-4.34877 0.0124,-0.46683 -1.58201,0.0979 -3.54303,1.25492 -1.96103,1.15703 -7.24853,4.90309 -11.75,8.32456 -4.50148,3.42148 -9.5038,7.35676 -11.11627,8.74507 -1.61247,1.38832 -4.76189,4.21346 -6.9987,6.2781 -2.23682,2.06464 -4.20273,3.34652 -4.3687,2.84861 -0.16597,-0.49791 1.02906,-4.43716 2.65561,-8.75389 1.62656,-4.31673 3.48062,-9.6486 4.12014,-11.8486 0.63952,-2.2 1.55725,-4.9 2.0394,-6 0.48215,-1.1 2.22044,-6.05 3.86286,-11 1.64242,-4.949998 3.26865,-10.799993 3.61384,-12.999993 0.38617,-2.4611 -0.78324,-0.15275 -3.03959,6 -2.01697,5.499993 -4.34969,12.249993 -5.18382,14.999993 -0.83413,2.75 -1.86417,5.45 -2.28897,6 -0.4248,0.55 -1.23208,2.575 -1.79395,4.5 -0.56187,1.925 -1.92795,5.975 -3.03574,9 -1.10779,3.02499 -2.70225,7.07499 -3.54325,8.99999 -1.37047,3.13697 -1.53092,3.24069 -1.54682,1 -0.01,-1.375 0.37196,-8.8 0.84826,-16.49999 0.47631,-7.7 0.57918,-18.275 0.22861,-23.5 -0.63741,-9.499993 -0.63741,-9.499993 -1.88447,10 -0.68588,10.725 -2.34628,26.92499 -3.68977,35.99999 -1.60001,10.80773 -3.35165,18.74242 -5.07742,23 -1.44908,3.575 -3.2407,7.85 -3.98137,9.5 -0.74067,1.65 -2.51146,6.15 -3.93509,10 -1.42364,3.85 -3.0021,7.9 -3.50771,9 -0.5056,1.1 -1.82933,4.54569 -2.94162,7.65708 -1.1123,3.11139 -2.99668,7.83639 -4.18751,10.5 -1.19084,2.66361 -2.73313,6.19292 -3.42731,7.84292 -0.69417,1.65 -2.48761,6.15 -3.98541,10 -1.4978,3.85 -3.06312,7.36315 -3.47849,7.80699 -0.41537,0.44385 -2.44392,-4.50615 -4.50789,-11 -2.06397,-6.49384 -5.3015,-16.08199 -7.19452,-21.30699 -1.89302,-5.225 -5.72921,-15.35 -8.52488,-22.5 -2.79566,-7.15 -6.14748,-15.02142 -7.44848,-17.49204 -1.49835,-2.84537 -2.35742,-3.76181 -2.34351,-2.5 0.0121,1.09562 0.953,4.01704 2.09094,6.49204 1.13793,2.475 3.42376,8.1 5.07961,12.5 1.65586,4.4 4.48617,12.55391 6.28959,18.1198 1.80342,5.5659 4.28582,13.6659 5.51646,18 1.23064,4.33411 3.30941,11.54528 4.61948,16.02482 1.31008,4.47954 2.38196,9.30226 2.38196,10.71717 0,1.4149 -2.30434,8.09983 -5.12076,14.85538 -2.81643,6.75556 -5.96174,14.41282 -6.98958,17.01614 -1.02785,2.60331 -2.99851,7.07503 -4.37924,9.93715 -1.38073,2.86212 -2.51042,5.55629 -2.51042,5.98706 0,0.43077 -1.07461,3.15905 -2.38802,6.06285 -1.31341,2.9038 -3.33841,7.39244 -4.5,9.97477 -1.16159,2.58232 -2.11198,5.16982 -2.11198,5.75 0,0.58017 -0.3375,1.05029 -0.75,1.04469 -0.4125,-0.006 -1.58191,-1.91809 -2.59869,-4.25 -1.01677,-2.3319 -5.11407,-12.33983 -9.1051,-22.23983 -3.99103,-9.9 -9.13154,-23.43922 -11.42336,-30.08717 -2.29182,-6.64794 -5.25178,-16.0302 -6.5777,-20.84946 -1.32591,-4.81926 -2.66801,-9.01956 -2.98244,-9.33399 -0.31443,-0.31443 -0.36554,1.41783 -0.11357,3.84947 0.25196,2.43163 2.29126,11.62115 4.53176,20.42115 2.24051,8.8 5.46361,20.275 7.16244,25.5 1.69884,5.225 5.29025,16.16688 7.98093,24.31529 2.69068,8.14841 5.77192,16.63623 6.84721,18.86182 1.9404,4.01616 1.94037,4.07535 -0.003,7.8853 -1.07711,2.11132 -2.81366,5.9985 -3.859,8.63818 -1.04533,2.63968 -3.48414,8.17441 -5.41957,12.29941 -1.93543,4.125 -5.35736,11.48165 -7.60428,16.3481 -2.24692,4.86645 -4.08531,9.00231 -4.08531,9.1908 0,0.18849 -1.8325,4.30684 -4.07221,9.1519 -2.23972,4.84506 -5.69731,12.2967 -7.68355,16.5592 -1.98623,4.2625 -3.97873,7.75 -4.42778,7.75 -0.44905,0 -0.81646,-1.04656 -0.81646,-2.32569 0,-1.27913 -1.15412,-7.69163 -2.56471,-14.25 -1.4106,-6.55837 -3.92789,-17.54931 -5.59399,-24.42431 -1.6661,-6.875 -5.07581,-19.475 -7.57714,-28 l -4.54786,-15.5 0.12849,-51.5 c 0.0713,-28.5655 -0.24547,-50.60934 -0.71125,-49.5 -0.46185,1.1 -1.11914,8.525 -1.46065,16.5 -0.3415,7.975 -1.32324,23.11662 -2.18164,33.64805 -0.8584,10.53143 -1.91466,21.10643 -2.34724,23.5 l -0.78651,4.35195 -0.78423,-3.5 c -0.43132,-1.925 -1.36931,-4.85 -2.08441,-6.5 -0.7151,-1.65 -1.99173,-5.025 -2.83696,-7.5 -0.84523,-2.475 -3.86442,-10.8 -6.7093,-18.5 -2.84488,-7.7 -5.7538,-15.35 -6.46427,-17 -0.71047,-1.65 -3.7654,-8.85 -6.78875,-16 -3.02335,-7.15 -7.07697,-16.40635 -9.00804,-20.56967 -1.93108,-4.16332 -3.63444,-8.21332 -3.78526,-9 -0.15082,-0.78668 0.96223,-6.83033 2.47345,-13.43033 1.51121,-6.6 3.83574,-16.95 5.16562,-23 1.32988,-6.05 3.52566,-16.175 4.87952,-22.5 1.35385,-6.325 3.21549,-15.68636 4.13698,-20.80302 0.92148,-5.11666 1.39929,-9.57916 1.06179,-9.91666 -0.3375,-0.3375 -0.61364,0.23381 -0.61364,1.26959 0,1.03578 -0.63493,3.69828 -1.41097,5.91667 -0.77603,2.21839 -2.16956,7.63342 -3.09673,12.03342 -0.92717,4.4 -3.92317,16.775 -6.65778,27.5 -2.7346,10.725 -5.56177,21.975 -6.28259,25 -0.72082,3.025 -1.74009,6.58756 -2.26503,7.9168 -0.85103,2.15493 -2.15453,0.0233 -12.02985,-19.67228 -6.09147,-12.149 -12.91627,-25.27406 -15.16622,-29.1668 -2.24996,-3.89275 -5.99865,-10.34022 -8.33042,-14.32772 -2.33178,-3.98749 -4.78783,-8.14999 -5.45789,-9.24999 -0.67006,-1.1 -2.22692,-3.9125 -3.45967,-6.25 -1.23276,-2.3375 -2.60171,-4.25 -3.04212,-4.25 -0.4404,0 -0.80073,0.45 -0.80073,1 0,0.55 0.45,1 1,1 0.55,0 1,0.9 1,2 0,1.1 0.41968,2 0.93261,2 0.51294,0 1.23245,0.94469 1.59891,2.0993 0.36646,1.15462 3.2595,6.66712 6.42897,12.24999 3.16948,5.58289 7.39997,13.40197 9.4011,17.37574 2.00112,3.97377 3.63841,7.58251 3.63841,8.01943 0,0.43692 -3.4875,0.64976 -7.75,0.47299 -4.2625,-0.17678 -12.7,-0.97165 -18.75,-1.76638 -6.05,-0.79472 -14.375,-2.06535 -18.5,-2.82362 -4.125,-0.75826 -7.65599,-1.24115 -7.84664,-1.07309 -0.19065,0.16807 2.67189,1.2379 6.3612,2.37742 3.68931,1.13951 12.1703,2.96353 18.84664,4.05337 6.67634,1.08985 16.38835,2.55154 21.58225,3.24819 l 9.44346,1.26665 5.94012,12 c 3.26706,6.6 8.84465,18.525 12.39463,26.5 3.54998,7.975 9.30746,21.7 12.7944,30.5 3.48694,8.8 7.09439,17.8 8.01654,20 l 1.67665,4 -2.35462,-2.11127 c -1.29505,-1.16119 -5.81811,-4.4212 -10.05125,-7.24445 -4.23314,-2.82325 -11.43314,-7.08755 -16,-9.47622 -4.56686,-2.38868 -12.35338,-5.97348 -17.30338,-7.96622 -4.95,-1.99275 -13.93743,-4.99702 -19.97206,-6.67616 -6.03464,-1.67915 -14.13464,-3.24799 -18,-3.48633 -3.86537,-0.23834 -5.90294,-0.21681 -4.52794,0.0478 1.375,0.26465 7.225,1.61807 13,3.00759 5.775,1.38952 14.55,4.03085 19.5,5.86962 4.95,1.83877 12.825,5.2718 17.5,7.62894 4.675,2.35715 11.65,6.29042 15.5,8.7406 3.85,2.45018 9.7,6.52018 13,9.04446 3.3,2.52427 7.27739,5.71922 8.83865,7.09988 1.56126,1.38066 3.45427,3.98369 4.2067,5.7845 0.75243,1.80082 4.07807,11.47839 7.39031,21.50572 3.31225,10.02733 7.6572,23.8565 9.65546,30.7315 1.99825,6.875 5.59757,20.15 7.99848,29.5 2.40092,9.35 6.16552,25.775 8.36579,36.5 2.20026,10.725 4.27183,22.2 4.60348,25.5 0.33165,3.3 0.22908,5.51255 -0.22794,4.91678 -0.45701,-0.59577 -3.75593,-3.54229 -7.33093,-6.54783 -3.575,-3.00553 -9.1333,-7.46808 -12.35178,-9.91677 -3.21848,-2.4487 -10.41215,-7.66214 -15.98595,-11.58542 -10.11442,-7.11935 -10.13791,-7.14565 -12.05576,-13.5 -1.05689,-3.50172 -3.73076,-11.54176 -5.94196,-17.86676 -2.21119,-6.325 -5.98265,-16 -8.38102,-21.5 -2.39837,-5.5 -6.22357,-13.2625 -8.50044,-17.25 -2.27687,-3.9875 -4.50952,-7.25 -4.96143,-7.25 -0.45191,0 -0.82166,0.27623 -0.82166,0.61385 0,0.33761 0.87089,2.25011 1.93531,4.25 1.06442,1.99988 2.63028,5.21115 3.4797,7.13615 0.84941,1.925 2.92173,7.325 4.60515,12 1.68341,4.675 4.87644,15.40361 7.09562,23.84135 2.21917,8.43774 3.88847,15.47629 3.70954,15.64122 -0.17893,0.16494 -2.82,-1.36968 -5.86906,-3.41026 -3.04906,-2.04058 -8.44906,-5.25413 -12,-7.14122 -3.55094,-1.8871 -6.69378,-3.74587 -6.98408,-4.13061 -0.2903,-0.38473 -7.2653,-4.13805 -15.5,-8.3407 -14.26391,-7.27971 -15.14954,-7.9089 -18.72131,-13.30048 -2.06203,-3.11261 -4.31203,-6.50999 -5,-7.54973 -0.68798,-1.03974 -5.59329,-7.33974 -10.9007,-14 -5.3074,-6.66026 -11.9449,-14.34265 -14.75,-17.07198 -2.80509,-2.72932 -5.10017,-4.52472 -5.10017,-3.98978 0,0.53495 1.0194,2.09303 2.26534,3.46241 1.24594,1.36938 4.73344,5.49471 7.75,9.16741 3.01656,3.67269 6.90981,8.62269 8.65166,11 1.74184,2.3773 5.03421,7.40091 7.31637,11.16356 2.28216,3.76266 4.39008,7.46842 4.68425,8.23504 0.36052,0.93949 -1.86144,0.38949 -6.81637,-1.68723 -4.04319,-1.6946 -12.95569,-5.07896 -19.80555,-7.5208 -6.849872,-2.44185 -16.749875,-5.51832 -22.000005,-6.8366 -5.25014,-1.31829 -11.1207,-2.6469 -13.0457,-2.95247 -2.78679,-0.44238 -2.99056,-0.38052 -1,0.30354 1.375,0.47252 6.55,2.08491 11.5,3.58309 4.95,1.49818 13.949999,4.54265 20.000005,6.76548 6.05,2.22283 13.925,5.3632 17.5,6.9786 3.575,1.6154 13.7,6.52829 22.5,10.91752 8.8,4.38924 17.08877,8.80314 18.41948,9.80868 2.41949,1.82825 2.41949,1.82825 -4,2.54301 -3.53071,0.39311 -11.81948,1.7825 -18.41948,3.08754 -6.6,1.30503 -16.17286,3.73306 -21.27302,5.39563 -5.10016,1.66257 -11.40016,4.13026 -14,5.48375 -2.599842,1.3535 -4.150036,2.48186 -3.444862,2.50747 0.70516,0.0256 2.955162,-0.66452 5.000002,-1.53362 2.04483,-0.86909 7.31788,-2.61642 11.71788,-3.88294 4.4,-1.26653 11.375,-3.00316 15.5,-3.85919 4.125,-0.85603 11.28405,-2.0337 15.909,-2.61705 4.62496,-0.58335 11.74483,-1.06064 15.82193,-1.06064 6.234,0 8.15691,0.42972 12.091,2.70199 2.57294,1.48609 4.90307,2.98652 5.17807,3.33429 0.275,0.34777 4.6625,3.41848 9.75,6.82381 5.0875,3.40532 9.25,6.62989 9.25,7.16571 0,0.53581 0.6004,0.9742 1.33422,0.9742 0.73382,0 3.78337,1.71564 6.77679,3.81254 2.99341,2.09689 6.55551,4.77878 7.91578,5.95975 1.36027,1.18098 3.3725,2.80354 4.47164,3.60571 1.09913,0.80216 1.77413,1.60777 1.5,1.79024 -0.27414,0.18247 -8.84329,4.48643 -19.04257,9.56436 -10.19928,5.07792 -22.78933,11.95461 -27.9779,15.28154 -5.18857,3.32692 -9.80482,6.712 -10.25835,7.52241 -0.47642,0.85132 1.23677,0.25804 4.0575,-1.40513 2.68515,-1.58322 8.44627,-4.57233 12.80249,-6.64248 4.35622,-2.07014 13.41067,-5.9411 20.121,-8.60215 6.71033,-2.66104 15.75151,-6.06286 20.0915,-7.55961 l 7.8909,-2.72136 6.9085,5.84365 c 3.79967,3.21401 9.24399,7.96987 12.09848,10.56859 4.02019,3.65996 5.06422,5.20587 4.632,6.85867 -0.36654,1.40167 -2.76988,3.18938 -7.00491,5.21058 -3.54582,1.69226 -7.11609,2.82006 -7.93394,2.50622 -0.81785,-0.31384 -1.25171,-0.18991 -0.96413,0.27541 0.28757,0.46531 -2.72655,1.59221 -6.69807,2.50421 -5.86497,1.34682 -11.91548,1.61651 -32.22093,1.43621 -22.4394,-0.19925 -25.92182,-0.005 -34,1.89471 -4.95,1.16419 -11.55373,3.07673 -14.67495,4.25009 -3.12122,1.17336 -7.30371,3.23869 -9.29441,4.58961 -1.9907,1.35093 -3.80024,2.45623 -4.02119,2.45623 -0.22095,0 0.43385,-2.42865 1.45512,-5.39701 1.02126,-2.96835 2.38279,-8.70585 3.02562,-12.75 0.84493,-5.31563 0.87945,-9.11966 0.12456,-13.72904 -0.57432,-3.50683 -2.00176,-8.23183 -3.17209,-10.5 -1.17033,-2.26817 -3.0987,-5.20009 -4.28526,-6.51537 -1.18657,-1.31528 -5.0824,-4.29764 -8.6574,-6.62745 -3.575,-2.32981 -8.83075,-5.06052 -11.67944,-6.06823 -2.84869,-1.00772 -4.91666,-2.2574 -4.59549,-2.77706 0.32117,-0.51967 0.12511,-0.66128 -0.43569,-0.31468 -0.5608,0.34659 -4.34283,-0.005 -8.404512,-0.78082 -4.061684,-0.77604 -11.529693,-1.32759 -16.595583,-1.22566 l -9.21071,0.18532 3.31757,-3.5 c 1.82467,-1.925 4.67034,-5.525 6.32371,-8 1.65338,-2.475 3.32312,-5.5125 3.71053,-6.75 0.38741,-1.2375 1.0544,-2.25 1.4822,-2.25 0.42779,0 0.72688,-3.29462 0.66464,-7.32139 -0.08,-5.175 -0.63312,-8.11496 -1.88675,-10.02825 -0.97548,-1.48877 -1.45775,-3.25664 -1.07171,-3.9286 0.38603,-0.67197 0.36389,-0.91841 -0.0492,-0.54765 -0.41311,0.37076 -2.72117,-0.82968 -5.12902,-2.66764 -2.40786,-1.83796 -9.67951,-5.94107 -16.15923,-9.11803 -6.47972,-3.17695 -12.11881,-5.85777 -12.53131,-5.95736 -0.4125,-0.0996 -1.45155,-0.23733 -2.30901,-0.30608 -0.90955,-0.0729 -1.26177,-0.60595 -0.84549,-1.27951 0.40701,-0.65857 0.2776,-0.88509 -0.30127,-0.52733 -0.55813,0.34495 -6.92822,-1.38552 -14.15575,-3.84549 -7.22753,-2.45997 -13.92791,-4.47956 -14.88972,-4.48798 -1.50768,-0.0132 -1.54197,-0.16009 -0.24876,-1.06551 1.21773,-0.85256 1.12363,-0.94939 -0.5,-0.51453 -1.1,0.29461 -5.15,-0.31029 -9.0000004,-1.34423 l -7.0000004,-1.87988 10.0501108,-0.0903 c 5.52756,-0.0497 16.10256,-0.56094 23.5,-1.13621 7.39744,-0.57527 17.49989,-1.72243 22.44989,-2.54924 4.95,-0.82682 11.37694,-2.38023 14.28209,-3.45203 2.90514,-1.0718 6.36936,-2.66114 7.69827,-3.53187 1.3289,-0.87073 3.16354,-3.54008 4.07698,-5.93189 1.25941,-3.29771 1.52714,-6.23876 1.10777,-12.16888 -0.30417,-4.30108 -0.69075,-8.94515 -0.85907,-10.32015 -0.16832,-1.375 -1.20604,-3.32178 -2.30604,-4.32618 -1.1,-1.00441 -1.55,-1.61341 -1,-1.35334 0.55,0.26007 4.65411,2.65686 9.12025,5.32619 4.466129,2.66933 10.316135,6.17981 13.000005,7.80106 2.68386,1.62125 5.21725,3.0275 5.62975,3.125 0.4125,0.0975 1.22656,0.23352 1.80902,0.30227 0.58246,0.0688 0.73793,0.64453 0.34549,1.27951 -0.42666,0.69036 -0.27587,0.88402 0.37509,0.48171 0.59874,-0.37004 3.03077,0.31123 5.40451,1.51395 2.37374,1.20271 4.93938,2.66666 5.70143,3.25322 0.76204,0.58656 1.88704,1.08022 2.5,1.09702 0.61295,0.0168 2.80196,0.67648 4.86446,1.46596 2.0625,0.78948 3.75,1.82157 3.75,2.29354 0,0.47197 0.35285,0.64006 0.7841,0.37353 0.43126,-0.26654 3.90902,0.38191 7.72836,1.44098 3.81934,1.05907 9.10595,1.92558 11.74802,1.92558 2.64206,0 6.35445,-0.64792 8.24974,-1.43982 1.89529,-0.7919 4.3805,-2.9294 5.52269,-4.75 1.50288,-2.39553 1.96134,-4.44902 1.65921,-7.43174 -0.22962,-2.26686 -1.14706,-5.58402 -2.03876,-7.37146 -0.89169,-1.78745 -1.33395,-3.71477 -0.9828,-4.28295 0.35115,-0.56817 0.16815,-0.74238 -0.40667,-0.38712 -0.57482,0.35526 -1.76934,-0.45938 -2.65451,-1.81031 -0.88516,-1.35093 -1.60938,-2.72362 -1.60938,-3.05043 0,-0.32681 0.4949,-0.28834 1.09977,0.0855 0.77295,0.47771 0.76249,0.0495 -0.0352,-1.44098 -0.62422,-1.16637 -1.68161,-2.08515 -2.34976,-2.04173 -0.91564,0.0595 -0.90698,0.20317 0.0352,0.58333 0.6875,0.27742 1.25,1.01945 1.25,1.64898 0,0.62952 -3.7125,-2.46478 -8.25,-6.87623 -4.5375,-4.41145 -10.725,-10.02527 -13.75,-12.47516 -3.025,-2.44988 -6.26445,-5.09835 -7.19877,-5.88548 -0.93433,-0.78713 -1.47346,-1.79572 -1.19806,-2.24131 0.27539,-0.44559 -0.0852,-0.59179 -0.80123,-0.32489 -0.71607,0.2669 -4.09704,-1.65075 -7.51328,-4.26146 -3.41623,-2.6107 -10.023,-7.20192 -14.6817,-10.20272 -4.6587,-3.0008 -8.2959,-5.7383 -8.08265,-6.08333 0.21324,-0.34504 -0.20552,-0.62734 -0.930592,-0.62734 -0.72507,0 -2.955274,-1.01171 -4.956014,-2.24823 -2.00074,-1.23652 -3.637709,-2.46308 -3.637709,-2.72568 0,-0.26261 0.35152,-0.26021 0.78116,0.005 0.429639,0.26553 3.748699,-0.13927 7.375703,-0.89955 3.627002,-0.76028 7.212982,-1.51348 7.968852,-1.67376 0.75586,-0.16029 1.59929,-0.53804 1.87429,-0.83945 0.275,-0.30141 2.6506,-1.79055 5.2791,-3.3092 3.10382,-1.79329 6.07157,-4.7078 8.46618,-8.31435 3.10234,-4.67246 3.67528,-6.36985 3.61265,-10.70279 -0.0461,-3.19071 -0.90355,-6.77483 -2.25401,-9.42194 -1.19876,-2.34976 -1.86801,-4.7764 -1.48723,-5.39251 0.38849,-0.6286 0.24518,-0.84386 -0.32656,-0.49051 -0.56039,0.34634 -2.95272,-1.6637 -5.31629,-4.46676 -2.36357,-2.80306 -8.62229,-8.54196 -13.90825,-12.75312 -5.285976,-4.21115 -11.311835,-8.70791 -13.390825,-9.99279 -2.07898,-1.28488 -3.64319,-2.47293 -3.47602,-2.6401 0.16717,-0.16717 2.77834,0.34272 5.802599,1.13309 3.02426,0.79036 8.901726,1.48559 13.061036,1.54495 4.15931,0.0593 8.65931,-0.23324 10,-0.65022 1.34069,-0.41697 3.73185,-1.67013 5.31368,-2.78479 1.58183,-1.11466 3.77681,-4.06297 4.87774,-6.55179 1.58185,-3.57604 1.9635,-6.41225 1.81963,-13.52257 -0.10012,-4.94859 -0.84744,-12.85374 -1.6607,-17.56701 -0.81326,-4.71326 -2.63617,-13.519563 -4.05091,-19.569563 -1.41474,-6.05 -3.25002,-13.13236 -4.07841,-15.73858 -0.82838,-2.60622 -1.23618,-5.44209 -0.90623,-6.30194 0.32995,-0.85984 0.1778,-1.30248 -0.3381,-0.98362 -0.51591,0.31885 -1.24499,-1.12028 -1.62018,-3.19807 -0.37518,-2.077784 -1.10937,-4.603834 -1.63154,-5.613434 -0.52217,-1.00961 -0.77499,-2.01005 -0.56183,-2.22321 0.21316,-0.21317 2.0681,1.86344 4.12209,4.61468 2.05398,2.75124 3.42151,5.508714 3.03894,6.127724 -0.40889,0.6616 -0.24798,0.84884 0.39041,0.45429 0.61446,-0.37975 3.0509,1.83268 5.6114,5.09549 2.48897,3.17167 5.23622,6.57059 6.10499,7.55315 0.86878,0.98256 1.26865,2.28959 0.88861,2.90451 -0.39893,0.64548 -0.24154,0.84026 0.37237,0.46084 0.58485,-0.36146 2.27068,0.80651 3.7463,2.59549 1.47561,1.78898 5.15578,5.81981 8.17815,8.9574 3.38084,3.50974 5.20991,6.16636 4.7537,6.90451 -0.47163,0.763115 -0.31775,0.937883 0.4228,0.480205 0.6849,-0.423285 2.29263,0.621338 3.90451,2.536948 1.50711,1.7911 2.7402,3.58288 2.7402,3.98174 0,0.39887 0.40965,1.10021 0.91033,1.55854 0.52889,0.48416 0.60891,0.30958 0.19098,-0.41667 -0.39564,-0.6875 -0.2683,-1.25 0.28297,-1.25 0.55127,0 1.59238,0.84244 2.31357,1.87209 0.7212,1.02965 3.33422,3.48752 5.80671,5.46193 2.47249,1.97441 6.87128,4.73197 9.77508,6.12791 3.24484,1.55989 7.0149,2.53807 9.78211,2.53807 2.47637,0 6.06286,-0.65196 7.96998,-1.44881 1.90712,-0.79684 5.08312,-2.68111 7.05779,-4.18726 1.97466,-1.50615 5.40208,-5.40643 7.61648,-8.66727 2.2144,-3.26085 5.51536,-9.139083 7.33546,-13.062733 l 3.30928,-7.13392 0.0235,7.5 c 0.0129,4.125 0.29268,11.549993 0.62175,16.499993 0.32907,4.95 1.05168,13.95 1.6058,20 0.55412,6.04999 1.89013,16.17499 2.96892,22.49999 1.07879,6.325 2.65653,14.2 3.50609,17.5 0.84955,3.3 2.72141,8.925 4.15967,12.5 1.43826,3.575 4.29834,8.79338 6.35573,11.5964 2.05739,2.80302 5.30882,5.84052 7.22541,6.75 1.91658,0.90948 5.04923,1.6536 6.96145,1.6536 1.91221,0 4.9942,-0.66257 6.84887,-1.47239 1.85466,-0.80982 4.30385,-2.27232 5.44264,-3.25 1.13878,-0.97768 3.41955,-3.57761 5.06836,-5.77761 1.64882,-2.2 3.75459,-5.64301 4.67949,-7.65113 0.92489,-2.00812 1.68163,-4.09052 1.68163,-4.62755 0,-0.53704 0.67005,-1.53252 1.48899,-2.21218 0.81894,-0.67966 1.30243,-1.53761 1.07442,-1.90655 -0.22802,-0.36893 0.46875,-3.80544 1.54838,-7.63669 1.07962,-3.83124 2.63436,-9.8909 3.45497,-13.4659 0.8206,-3.575 1.73033,-8.3 2.02161,-10.5 0.29128,-2.2 1.31105,-10.96839 2.26617,-19.4853 0.95511,-8.51692 2.08012,-14.92942 2.50003,-14.25 0.4199,0.67942 0.44238,1.75484 0.0499,2.38982 -0.40037,0.64781 -0.27814,0.88543 0.27848,0.54142 0.5456,-0.3372 2.64928,1.08412 4.67485,3.15848 2.02556,2.07437 3.33619,4.15288 2.9125,4.61891 -0.42369,0.46603 -0.28485,0.57122 0.30853,0.23376 0.59338,-0.33747 2.64661,0.67868 4.56273,2.25811 1.91612,1.57943 5.29854,3.81756 7.51648,4.97361 2.21794,1.15606 6.50695,2.62092 9.53112,3.25523 4.32942,0.90811 6.49702,0.87376 10.19484,-0.16157 2.58298,-0.72318 6.35265,-2.63116 8.37704,-4.23993 2.02438,-1.60878 5.16278,-5.69898 6.97421,-9.08933 1.81144,-3.39035 4.13198,-8.42303 5.15676,-11.18373 1.02478,-2.76071 2.86235,-9.069468 4.0835,-14.019463 1.22114,-4.95 2.37599,-10.125 2.56632,-11.5 0.19033,-1.375 0.67648,-5.2 1.08032,-8.5 0.40385,-3.3 0.75499,-10.05 0.78031,-15.000004 l 0.046,-8.99999 4.35278,4.11122 c 2.39403,2.26117 6.2799,5.07367 8.63526,6.25 2.62878,1.312874 6.17786,2.138774 9.19082,2.138774 3.56328,0 5.89799,-0.67249 8.51977,-2.454034 1.98628,-1.34972 3.92825,-2.13722 4.31546,-1.75 0.38722,0.38722 0.55404,0.25366 0.3707,-0.2968 -0.18333,-0.55047 1.7328,-3.70047 4.25808,-7 2.52528,-3.29954 6.86625,-9.44944 9.64662,-13.66645 2.78037,-4.21701 7.53381,-12.09202 10.5632,-17.5 3.02939,-5.40799 6.43103,-11.6327095 7.55918,-13.8327094 1.12816,-2.2 2.07109,-3.77203 2.09539,-3.49339 0.0243,0.27863 -0.43046,2.07863 -1.01059,4 -0.58014,1.9213599 -1.21989,4.6212694 -1.42167,5.9997794 -0.20177,1.37851 -1.09157,5.63125 -1.97732,9.45053 -0.88575,3.81928 -1.78674,9.06571 -2.00221,11.65873 -0.21546,2.59302 -0.70068,8.25604 -1.07825,12.58448 -0.40244,4.61345 -0.21528,10.95883 0.45232,15.334894 0.62635,4.10573 2.27485,9.80853 3.66333,12.67289 1.38848,2.86435 4.18818,6.49634 6.22155,8.07108 2.03337,1.57475 5.72204,3.78498 8.19704,4.91164 2.475,1.12665 5.4,2.32484 6.5,2.66265 1.1,0.3378 4.83046,0.99948 8.2899,1.4704 3.45945,0.47091 6.5235,0.47823 6.80902,0.0163 0.28551,-0.46197 0.93973,-0.83995 1.45382,-0.83995 0.51409,0 -2.32443,3.10789 -6.30783,6.90643 -4.95638,4.726353 -7.50943,6.541383 -8.08806,5.749993 -0.54419,-0.7443 -0.65774,-0.56625 -0.31862,0.49962 0.28979,0.91082 -0.26678,2.3743 -1.23682,3.25218 -0.97004,0.87787 -2.13684,1.25765 -2.59289,0.84395 -0.45604,-0.4137 -0.56519,-0.28632 -0.24256,0.28307 0.32264,0.56938 -1.18992,3.04438 -3.36124,5.5 -2.17132,2.45561 -5.98364,7.51883 -8.47181,11.25159 -2.48817,3.73276 -4.77562,7.44267 -5.08321,8.24425 -0.3076,0.80158 -1.03165,1.16547 -1.60899,0.80865 -0.60321,-0.3728 -0.75394,-0.17016 -0.35435,0.47638 0.38245,0.61882 0.002,2.46601 -0.84549,4.10485 -0.93269,1.80361 -1.54087,5.59324 -1.54087,9.60129 0,5.31755 0.5093,7.49064 2.58606,11.03437 1.42233,2.42702 4.90983,6.51515 7.75,9.08472 2.84017,2.56958 7.88288,5.91351 11.20602,7.43098 3.32315,1.51746 7.71562,3.07298 9.76105,3.45671 2.04543,0.38372 3.97008,1.10401 4.27701,1.60063 0.30693,0.49662 1.08946,0.58243 1.73896,0.19068 0.64949,-0.39175 -0.33547,1.06341 -2.18882,3.23369 -1.85335,2.17027 -5.25113,5.97095 -7.55064,8.44595 -2.2995,2.475 -5.68521,6.39915 -7.52379,8.72032 -1.83858,2.32118 -3.79782,3.93915 -4.35387,3.5955 -0.57755,-0.35695 -0.70305,-0.12657 -0.29273,0.53735 0.39505,0.63919 0.12707,1.81811 -0.59549,2.6198 -0.72257,0.80169 -1.77338,2.03574 -2.33513,2.74233 -0.56175,0.70659 -3.07385,4.4347 -5.58243,8.2847 -2.50859,3.85 -6.02001,9.67632 -7.80315,12.94737 -1.78314,3.27105 -4.33354,9.29099 -5.66756,13.37764 -1.33402,4.08666 -2.42549,9.79159 -2.42549,12.67764 0,2.88604 0.28139,6.65431 0.62532,8.37393 0.34392,1.71962 2.35415,5.09064 4.46717,7.49116 2.11302,2.40052 3.51913,4.72196 3.12468,5.15875 -0.39444,0.43679 -0.19243,0.4938 0.44891,0.12668 0.64135,-0.36711 2.44135,-0.17549 4,0.42583 1.55866,0.60132 6.48334,1.09954 10.94374,1.10715 4.46039,0.008 10.76039,-0.51682 14,-1.16542 3.2396,-0.6486 10.71002,-2.92431 16.60094,-5.05713 5.89091,-2.13282 12.86591,-4.84289 15.5,-6.02238 2.63408,-1.17949 7.37674,-3.44194 10.53924,-5.02767 3.1625,-1.58573 5.75,-2.67855 5.75,-2.42849 0,0.25007 1.6378,-0.65677 3.63955,-2.01519 2.00175,-1.35843 3.94994,-2.46987 4.32931,-2.46987 0.37937,0 4.25278,-2.03047 8.60757,-4.51216 4.3548,-2.48168 8.50498,-4.28684 9.22263,-4.01145 0.71765,0.27539 1.06643,0.11499 0.77507,-0.35645 -0.29136,-0.47143 2.84739,-2.94127 6.975,-5.48854 4.12761,-2.54727 7.69466,-4.6314 7.92678,-4.6314 0.23212,0 -0.27288,1.6875 -1.12222,3.75 -0.84934,2.0625 -2.14228,5.1 -2.87319,6.75 -0.73091,1.65 -1.81303,5.38465 -2.40472,8.29922 -0.59168,2.91458 -1.07138,6.96458 -1.06601,9 0.005,2.03543 1.07232,5.98267 2.371,8.77165 1.29868,2.78897 4.09681,6.50147 6.21807,8.25 2.12127,1.74852 4.45588,3.17913 5.18802,3.17913 0.75157,0 1.0205,0.50268 0.61765,1.15451 -0.42688,0.6907 -0.27585,0.88401 0.37593,0.48119 0.5992,-0.37033 3.25623,-0.18025 5.90451,0.42241 2.64828,0.60265 11.56505,1.04862 19.81505,0.99104 8.25,-0.0576 20.175,-0.77185 26.5,-1.58726 6.325,-0.81541 13.36605,-1.64765 15.64679,-1.84942 2.28073,-0.20177 4.53707,-0.60806 5.01409,-0.90288 0.47702,-0.29481 3.78596,-1.03534 7.35321,-1.64561 3.56725,-0.61028 7.61091,-1.33051 8.98591,-1.60052 2.30588,-0.45281 2.3447,-0.40278 0.5,0.64428 -1.1,0.62437 -7.625,4.28669 -14.5,8.13848 -6.875,3.8518 -15.70223,9.1824 -19.61607,11.84579 -3.91384,2.66338 -7.40134,4.63225 -7.75,4.37526 -0.34866,-0.257 -0.41089,-0.16923 -0.13829,0.19504 0.2726,0.36427 -1.69547,2.13788 -4.37349,3.94137 -2.67801,1.80348 -7.96355,6.3376 -11.74564,10.07582 -3.78208,3.73822 -7.24746,6.67845 -7.70084,6.53386 -0.45338,-0.1446 -0.54749,0.18502 -0.20913,0.7325 0.33836,0.54747 -0.0782,2.33628 -0.92567,3.97512 -0.84748,1.63883 -1.54087,4.57585 -1.54087,6.52669 0,1.95085 1.33726,6.37732 2.97169,9.8366 1.63443,3.45928 4.64017,8.23883 6.67941,10.62122 2.03924,2.38239 5.91499,6.07638 8.61277,8.20886 4.35898,3.44557 4.61733,3.85342 2.3206,3.66333 -1.42146,-0.11764 -2.58867,-0.45324 -2.59381,-0.74578 -0.005,-0.29255 -2.81763,-0.642 -6.25,-0.77658 -3.43236,-0.13457 -10.88701,-0.59933 -16.56588,-1.03279 -5.67887,-0.43347 -10.50372,-0.49931 -10.72188,-0.14631 -0.21817,0.353 -2.84555,0.92963 -5.83864,1.28141 -2.99308,0.35178 -7.42211,1.48838 -9.8423,2.5258 -2.42018,1.03741 -5.59695,3.30831 -7.0595,5.04645 -1.46255,1.73814 -3.19007,4.93219 -3.83892,7.09789 -0.9804,3.27227 -0.88033,5.04377 0.59222,10.4838 0.97458,3.60039 3.56467,9.34567 5.75575,12.7673 2.19108,3.42162 5.1663,7.479 6.6116,9.0164 l 2.62781,2.79526 -3.98046,-1.67699 c -2.18925,-0.92235 -8.48046,-3.34933 -13.98046,-5.39329 -5.5,-2.04396 -11.70001,-4.03242 -13.77779,-4.4188 -2.07778,-0.38637 -3.51691,-1.12461 -3.19806,-1.64052 0.31885,-0.51591 -0.076,-0.68641 -0.87736,-0.37888 -0.8014,0.30753 -4.53728,-0.35169 -8.30194,-1.46492 -3.76467,-1.11324 -10.21985,-2.70593 -14.34485,-3.53932 -4.125,-0.83339 -11.55,-1.99791 -16.5,-2.58784 -6.15409,-0.73342 -11.75178,-0.75923 -17.70231,-0.0816 -4.78627,0.54504 -10.18627,1.74289 -12,2.6619 -1.81373,0.91901 -4.05683,2.33575 -4.98468,3.1483 -0.92784,0.81256 -2.23487,1.13876 -2.90451,0.72491 -0.70397,-0.43508 -0.95977,-0.33543 -0.60645,0.23626 0.33609,0.5438 -0.24111,2.75083 -1.28266,4.9045 -1.04155,2.15368 -1.99576,5.49078 -2.12046,7.41578 -0.12471,1.925 0.45231,5.075 1.28226,7 0.82995,1.925 2.25371,4.1176 3.16391,4.87245 0.91019,0.75484 1.6549,1.7939 1.6549,2.30901 0,0.51512 -0.44485,0.66165 -0.98855,0.32562 -0.57775,-0.35707 -0.7277,0.0688 -0.36083,1.02483 0.39967,1.04153 0.87037,1.24314 1.29568,0.55498 0.42905,-0.69422 2.07825,-0.0495 4.61084,1.80261 2.16857,1.58588 7.09286,4.47758 10.94286,6.42601 3.85,1.94842 9.025,4.27468 11.5,5.16947 2.475,0.89478 8.325,2.67936 13,3.96573 4.675,1.28637 12.1,3.1378 16.5,4.1143 l 8,1.77544 -4.5,1.20919 c -2.475,0.66505 -5.79046,1.72245 -7.36769,2.34977 -1.57723,0.62732 -3.99262,2.02545 -5.36754,3.10696 -1.37491,1.08151 -2.96648,1.67799 -3.53682,1.3255 -0.57033,-0.35249 -0.75701,-0.18791 -0.41485,0.36572 0.34216,0.55363 -0.29426,2.76066 -1.41427,4.90451 -1.61288,3.08727 -1.91417,5.00764 -1.44875,9.23403 0.3232,2.93487 1.27254,6.66059 2.10965,8.27937 0.8371,1.61878 1.20908,3.44955 0.82663,4.06838 -0.41308,0.66838 -0.24706,0.84807 0.40896,0.44262 0.60738,-0.37538 1.59772,0.23939 2.20075,1.36616 0.60303,1.12677 0.78108,2.55891 0.39567,3.18252 -0.4617,0.74704 -0.24893,0.8546 0.62369,0.31529 0.96971,-0.59932 1.14808,-0.35896 0.66596,0.89743 -0.36216,0.94379 -0.2681,1.47471 0.20904,1.17982 0.47713,-0.29488 5.04583,5.64425 10.15266,13.19807 5.10683,7.55381 9.57036,13.95921 9.91896,14.23421 0.34859,0.275 3.60153,4.32793 7.22874,9.00651 3.62722,4.67857 7.82952,9.74107 9.33844,11.25 1.50892,1.50892 2.55177,2.74349 2.31744,2.74349 -0.23434,0 -5.45134,-3.31936 -11.59334,-7.37636 -6.142,-4.057 -10.84913,-7.72915 -10.4603,-8.16033 0.38883,-0.43117 0.18424,-0.48483 -0.45465,-0.11924 -0.63889,0.3656 -4.01389,-0.9004 -7.5,-2.81332 -3.48611,-1.91292 -6.23128,-3.9237 -6.10038,-4.4684 0.13091,-0.5447 -0.50541,-0.70509 -1.41404,-0.35642 -1.19713,0.45938 -1.42665,0.26925 -0.8335,-0.6905 0.53217,-0.86105 0.43116,-1.08502 -0.28868,-0.64013 -0.60898,0.37637 -5.29101,-1.30739 -10.40451,-3.7417 -5.1135,-2.4343 -12.17717,-5.39542 -15.69705,-6.58026 -3.51988,-1.18483 -9.38697,-2.71909 -13.03798,-3.40945 -5.31365,-1.00474 -7.62831,-1.00595 -11.60023,-0.006 -3.55236,0.89428 -5.86184,2.27971 -8.12944,4.87675 -1.74209,1.99517 -4.32664,5.99692 -5.74344,8.89276 -1.41681,2.89585 -3.53101,9.05135 -4.69822,13.67891 -1.16722,4.62755 -2.05651,11.00123 -1.97621,14.16373 0.0803,3.1625 -0.0157,5.75 -0.21341,5.75 -0.19768,0 -1.44884,-2.35483 -2.78035,-5.23297 z m 2.07906,-2.26703 c 0,-0.275 -0.225,-0.5 -0.5,-0.5 -0.275,0 -0.5,0.225 -0.5,0.5 0,0.275 0.225,0.5 0.5,0.5 0.275,0 0.5,-0.225 0.5,-0.5 z M 513.008,542.29131 c -0.36667,-0.36667 -0.96667,-0.36667 -1.33334,0 -0.36666,0.36666 -0.0667,0.66666 0.66667,0.66666 0.73333,0 1.03333,-0.3 0.66667,-0.66666 z m -109.66667,-1.83334 c 0,-0.275 -0.225,-0.5 -0.5,-0.5 -0.275,0 -0.5,0.225 -0.5,0.5 0,0.275 0.225,0.5 0.5,0.5 0.275,0 0.5,-0.225 0.5,-0.5 z m -3,-4 c 0,-0.275 -0.225,-0.5 -0.5,-0.5 -0.275,0 -0.5,0.225 -0.5,0.5 0,0.275 0.225,0.5 0.5,0.5 0.275,0 0.5,-0.225 0.5,-0.5 z m 104,0 c 0,-0.275 -0.225,-0.5 -0.5,-0.5 -0.275,0 -0.5,0.225 -0.5,0.5 0,0.275 0.225,0.5 0.5,0.5 0.275,0 0.5,-0.225 0.5,-0.5 z m -189,-5 c 0,-0.275 -0.225,-0.5 -0.5,-0.5 -0.275,0 -0.5,0.225 -0.5,0.5 0,0.275 0.225,0.5 0.5,0.5 0.275,0 0.5,-0.225 0.5,-0.5 z m 80,-2 c 0,-0.275 -0.225,-0.5 -0.5,-0.5 -0.275,0 -0.5,0.225 -0.5,0.5 0,0.275 0.225,0.5 0.5,0.5 0.275,0 0.5,-0.225 0.5,-0.5 z m -70,-1 c 0,-0.275 -0.225,-0.5 -0.5,-0.5 -0.275,0 -0.5,0.225 -0.5,0.5 0,0.275 0.225,0.5 0.5,0.5 0.275,0 0.5,-0.225 0.5,-0.5 z m 165,0 c 0,-0.275 -0.225,-0.5 -0.5,-0.5 -0.275,0 -0.5,0.225 -0.5,0.5 0,0.275 0.225,0.5 0.5,0.5 0.275,0 0.5,-0.225 0.5,-0.5 z m -178,-1 c 0,-0.275 -0.225,-0.5 -0.5,-0.5 -0.275,0 -0.5,0.225 -0.5,0.5 0,0.275 0.225,0.5 0.5,0.5 0.275,0 0.5,-0.225 0.5,-0.5 z m 101,0 c 0,-0.275 -0.225,-0.5 -0.5,-0.5 -0.275,0 -0.5,0.225 -0.5,0.5 0,0.275 0.225,0.5 0.5,0.5 0.275,0 0.5,-0.225 0.5,-0.5 z m 79,-1 c 0,-0.275 -0.225,-0.5 -0.5,-0.5 -0.275,0 -0.5,0.225 -0.5,0.5 0,0.275 0.225,0.5 0.5,0.5 0.275,0 0.5,-0.225 0.5,-0.5 z m -100,-1 c 0,-0.275 -0.225,-0.5 -0.5,-0.5 -0.275,0 -0.5,0.225 -0.5,0.5 0,0.275 0.225,0.5 0.5,0.5 0.275,0 0.5,-0.225 0.5,-0.5 z m -65,-1 c 0,-0.275 -0.225,-0.5 -0.5,-0.5 -0.275,0 -0.5,0.225 -0.5,0.5 0,0.275 0.225,0.5 0.5,0.5 0.275,0 0.5,-0.225 0.5,-0.5 z m 166.5,-1.5 c 0.33992,-0.55 0.39303,-1 0.11803,-1 -0.275,0 -0.77811,0.45 -1.11803,1 -0.33992,0.55 -0.39303,1 -0.11803,1 0.275,0 0.77811,-0.45 1.11803,-1 z m 3.5,-0.5 c 0,-0.275 -0.225,-0.5 -0.5,-0.5 -0.275,0 -0.5,0.225 -0.5,0.5 0,0.275 0.225,0.5 0.5,0.5 0.275,0 0.5,-0.225 0.5,-0.5 z m -110,-2 c 0,-0.275 -0.225,-0.5 -0.5,-0.5 -0.275,0 -0.5,0.225 -0.5,0.5 0,0.275 0.225,0.5 0.5,0.5 0.275,0 0.5,-0.225 0.5,-0.5 z m 106,0 c 0,-0.275 -0.225,-0.5 -0.5,-0.5 -0.275,0 -0.5,0.225 -0.5,0.5 0,0.275 0.225,0.5 0.5,0.5 0.275,0 0.5,-0.225 0.5,-0.5 z m -108,-2 c 0,-0.275 -0.225,-0.5 -0.5,-0.5 -0.275,0 -0.5,0.225 -0.5,0.5 0,0.275 0.225,0.5 0.5,0.5 0.275,0 0.5,-0.225 0.5,-0.5 z m 109,0 c 0,-0.275 -0.225,-0.5 -0.5,-0.5 -0.275,0 -0.5,0.225 -0.5,0.5 0,0.275 0.225,0.5 0.5,0.5 0.275,0 0.5,-0.225 0.5,-0.5 z m -80,-2 c 0,-0.275 -0.225,-0.5 -0.5,-0.5 -0.275,0 -0.5,0.225 -0.5,0.5 0,0.275 0.225,0.5 0.5,0.5 0.275,0 0.5,-0.225 0.5,-0.5 z m 79,0 c 0,-0.275 -0.225,-0.5 -0.5,-0.5 -0.275,0 -0.5,0.225 -0.5,0.5 0,0.275 0.225,0.5 0.5,0.5 0.275,0 0.5,-0.225 0.5,-0.5 z m -113,-2 c 0,-0.275 -0.225,-0.5 -0.5,-0.5 -0.275,0 -0.5,0.225 -0.5,0.5 0,0.275 0.225,0.5 0.5,0.5 0.275,0 0.5,-0.225 0.5,-0.5 z M 298.008,511.29131 c -0.36667,-0.36667 -0.66667,-0.0667 -0.66667,0.66666 0,0.73334 0.3,1.03334 0.66667,0.66667 0.36666,-0.36667 0.36666,-0.96667 0,-1.33333 z m 80,1 c -0.36667,-0.36667 -0.96667,-0.36667 -1.33334,0 -0.36666,0.36666 -0.0667,0.66666 0.66667,0.66666 0.73333,0 1.03333,-0.3 0.66667,-0.66666 z m -33.66667,-0.83334 c 0,-0.275 -0.225,-0.5 -0.5,-0.5 -0.275,0 -0.5,0.225 -0.5,0.5 0,0.275 0.225,0.5 0.5,0.5 0.275,0 0.5,-0.225 0.5,-0.5 z M 454.008,511.29131 c -0.36667,-0.36667 -0.96667,-0.36667 -1.33334,0 -0.36666,0.36666 -0.0667,0.66666 0.66667,0.66666 0.73333,0 1.03333,-0.3 0.66667,-0.66666 z m 35.33333,0.16666 c 0,-0.275 -0.225,-0.5 -0.5,-0.5 -0.275,0 -0.5,0.225 -0.5,0.5 0,0.275 0.225,0.5 0.5,0.5 0.275,0 0.5,-0.225 0.5,-0.5 z M 296.008,509.29131 c -0.36667,-0.36667 -0.66667,-0.0667 -0.66667,0.66666 0,0.73334 0.3,1.03334 0.66667,0.66667 0.36666,-0.36667 0.36666,-0.96667 0,-1.33333 z m 45.33333,1.16666 c 0,-0.275 -0.225,-0.5 -0.5,-0.5 -0.275,0 -0.5,0.225 -0.5,0.5 0,0.275 0.225,0.5 0.5,0.5 0.275,0 0.5,-0.225 0.5,-0.5 z m -42,-1 c 0,-0.275 -0.225,-0.5 -0.5,-0.5 -0.275,0 -0.5,0.225 -0.5,0.5 0,0.275 0.225,0.5 0.5,0.5 0.275,0 0.5,-0.225 0.5,-0.5 z m 124,0 c 0,-0.275 -0.225,-0.5 -0.5,-0.5 -0.275,0 -0.5,0.225 -0.5,0.5 0,0.275 0.225,0.5 0.5,0.5 0.275,0 0.5,-0.225 0.5,-0.5 z m 29,0 c 0,-0.275 -0.225,-0.5 -0.5,-0.5 -0.275,0 -0.5,0.225 -0.5,0.5 0,0.275 0.225,0.5 0.5,0.5 0.275,0 0.5,-0.225 0.5,-0.5 z m -87,-1 c 0,-0.275 -0.225,-0.5 -0.5,-0.5 -0.275,0 -0.5,0.225 -0.5,0.5 0,0.275 0.225,0.5 0.5,0.5 0.275,0 0.5,-0.225 0.5,-0.5 z m -73,-3.94098 c 0,-0.24254 -0.51953,-0.76207 -1.15451,-1.15451 -0.7153,-0.44208 -0.88306,-0.27431 -0.44098,0.44098 0.39244,0.63498 0.91197,1.15451 1.15451,1.15451 0.24254,0 0.44098,-0.19844 0.44098,-0.44098 z m -2,-3.05902 c 0,-0.275 -0.225,-0.5 -0.5,-0.5 -0.275,0 -0.5,0.225 -0.5,0.5 0,0.275 0.225,0.5 0.5,0.5 0.275,0 0.5,-0.225 0.5,-0.5 z M 478.008,497.29131 c -0.36667,-0.36667 -0.66667,-0.0667 -0.66667,0.66666 0,0.73334 0.3,1.03334 0.66667,0.66667 0.36666,-0.36667 0.36666,-0.96667 0,-1.33333 z m -7.66667,-12.83334 c 0,-0.275 -0.225,-0.5 -0.5,-0.5 -0.275,0 -0.5,0.225 -0.5,0.5 0,0.275 0.225,0.5 0.5,0.5 0.275,0 0.5,-0.225 0.5,-0.5 z m 1,-8 c 0,-0.275 -0.225,-0.5 -0.5,-0.5 -0.275,0 -0.5,0.225 -0.5,0.5 0,0.275 0.225,0.5 0.5,0.5 0.275,0 0.5,-0.225 0.5,-0.5 z m 6,-15 c 0,-0.275 -0.225,-0.5 -0.5,-0.5 -0.275,0 -0.5,0.225 -0.5,0.5 0,0.275 0.225,0.5 0.5,0.5 0.275,0 0.5,-0.225 0.5,-0.5 z m -210,-2 c 0,-0.275 -0.225,-0.5 -0.5,-0.5 -0.275,0 -0.5,0.225 -0.5,0.5 0,0.275 0.225,0.5 0.5,0.5 0.275,0 0.5,-0.225 0.5,-0.5 z m 219.49292,-1.48854 c 0.35034,-0.56686 -0.0511,-0.73451 -0.94098,-0.39301 -0.85357,0.32754 -1.55194,0.77239 -1.55194,0.98854 0,0.21616 0.42344,0.39301 0.94098,0.39301 0.51754,0 1.21592,-0.44484 1.55194,-0.98854 z m 4.23625,-1.61562 c -0.33229,-0.3323 -1.19479,-0.36782 -1.91667,-0.079 -0.79773,0.31923 -0.56078,0.55618 0.60417,0.60417 1.05416,0.0434 1.64479,-0.19293 1.3125,-0.52522 z m -349.72917,-7.89584 c 0,-0.275 -0.225,-0.5 -0.5,-0.5 -0.275,0 -0.5,0.225 -0.5,0.5 0,0.275 0.225,0.5 0.5,0.5 0.275,0 0.5,-0.225 0.5,-0.5 z m 13,-2 c 0,-0.275 -0.225,-0.5 -0.5,-0.5 -0.275,0 -0.5,0.225 -0.5,0.5 0,0.275 0.225,0.5 0.5,0.5 0.275,0 0.5,-0.225 0.5,-0.5 z m -6,-1 c 0,-0.275 -0.225,-0.5 -0.5,-0.5 -0.275,0 -0.5,0.225 -0.5,0.5 0,0.275 0.225,0.5 0.5,0.5 0.275,0 0.5,-0.225 0.5,-0.5 z m 291,-2 c 0,-0.275 -0.225,-0.5 -0.5,-0.5 -0.275,0 -0.5,0.225 -0.5,0.5 0,0.275 0.225,0.5 0.5,0.5 0.275,0 0.5,-0.225 0.5,-0.5 z m -9,-9 c 0,-0.275 -0.225,-0.5 -0.5,-0.5 -0.275,0 -0.5,0.225 -0.5,0.5 0,0.275 0.225,0.5 0.5,0.5 0.275,0 0.5,-0.225 0.5,-0.5 z m 104,-24 c 0,-0.275 -0.225,-0.5 -0.5,-0.5 -0.275,0 -0.5,0.225 -0.5,0.5 0,0.275 0.225,0.5 0.5,0.5 0.275,0 0.5,-0.225 0.5,-0.5 z m -103,-11 c 0,-0.275 -0.225,-0.5 -0.5,-0.5 -0.275,0 -0.5,0.225 -0.5,0.5 0,0.275 0.225,0.5 0.5,0.5 0.275,0 0.5,-0.225 0.5,-0.5 z m 6,0 c 0,-0.275 -0.225,-0.5 -0.5,-0.5 -0.275,0 -0.5,0.225 -0.5,0.5 0,0.275 0.225,0.5 0.5,0.5 0.275,0 0.5,-0.225 0.5,-0.5 z m 89,0 c 0,-0.275 -0.225,-0.5 -0.5,-0.5 -0.275,0 -0.5,0.225 -0.5,0.5 0,0.275 0.225,0.5 0.5,0.5 0.275,0 0.5,-0.225 0.5,-0.5 z m -86,-1 c 0,-0.275 -0.225,-0.5 -0.5,-0.5 -0.275,0 -0.5,0.225 -0.5,0.5 0,0.275 0.225,0.5 0.5,0.5 0.275,0 0.5,-0.225 0.5,-0.5 z m 85,-2 c 0,-0.275 -0.225,-0.5 -0.5,-0.5 -0.275,0 -0.5,0.225 -0.5,0.5 0,0.275 0.225,0.5 0.5,0.5 0.275,0 0.5,-0.225 0.5,-0.5 z m 3,0 c 0,-0.275 -0.225,-0.5 -0.5,-0.5 -0.275,0 -0.5,0.225 -0.5,0.5 0,0.275 0.225,0.5 0.5,0.5 0.275,0 0.5,-0.225 0.5,-0.5 z m -431.000006,-16 c 0,-0.275 -0.225,-0.5 -0.5,-0.5 -0.275,0 -0.5,0.225 -0.5,0.5 0,0.275 0.225,0.5 0.5,0.5 0.275,0 0.5,-0.225 0.5,-0.5 z M 542.008,368.29131 c -0.36667,-0.36667 -0.96667,-0.36667 -1.33334,0 -0.36666,0.36666 -0.0667,0.66666 0.66667,0.66666 0.73333,0 1.03333,-0.3 0.66667,-0.66666 z m 6.33333,-0.83334 c 0,-0.275 -0.225,-0.5 -0.5,-0.5 -0.275,0 -0.5,0.225 -0.5,0.5 0,0.275 0.225,0.5 0.5,0.5 0.275,0 0.5,-0.225 0.5,-0.5 z m -457.000005,-3 c 0,-0.275 -0.225,-0.5 -0.5,-0.5 -0.275,0 -0.5,0.225 -0.5,0.5 0,0.275 0.225,0.5 0.5,0.5 0.275,0 0.5,-0.225 0.5,-0.5 z M 567.008,340.29131 c -0.36667,-0.36667 -0.66667,-0.0667 -0.66667,0.66666 0,0.73334 0.3,1.03334 0.66667,0.66667 0.36666,-0.36667 0.36666,-0.96667 0,-1.33333 z M 70.341325,336.45797 c 0,-0.275 -0.225,-0.5 -0.5,-0.5 -0.275,0 -0.5,0.225 -0.5,0.5 0,0.275 0.225,0.5 0.5,0.5 0.275,0 0.5,-0.225 0.5,-0.5 z m -22,-10 c 0,-0.275 -0.225,-0.5 -0.5,-0.5 -0.275,0 -0.5,0.225 -0.5,0.5 0,0.275 0.225,0.5 0.5,0.5 0.275,0 0.5,-0.225 0.5,-0.5 z m 43.999999,-1 c 0,-0.275 -0.224999,-0.5 -0.499999,-0.5 -0.275,0 -0.5,0.225 -0.5,0.5 0,0.275 0.225,0.5 0.5,0.5 0.275,0 0.499999,-0.225 0.499999,-0.5 z m -30.999999,-13 c 0,-0.275 -0.225,-0.5 -0.5,-0.5 -0.275,0 -0.5,0.225 -0.5,0.5 0,0.275 0.225,0.5 0.5,0.5 0.275,0 0.5,-0.225 0.5,-0.5 z m 525.000005,0 c 0,-0.275 -0.225,-0.5 -0.5,-0.5 -0.275,0 -0.5,0.225 -0.5,0.5 0,0.275 0.225,0.5 0.5,0.5 0.275,0 0.5,-0.225 0.5,-0.5 z m -507.000005,-5 c 0,-0.275 -0.225,-0.5 -0.5,-0.5 -0.275,0 -0.5,0.225 -0.5,0.5 0,0.275 0.225,0.5 0.5,0.5 0.275,0 0.5,-0.225 0.5,-0.5 z m 89.000005,-8 c 0,-0.275 -0.225,-0.5 -0.5,-0.5 -0.275,0 -0.5,0.225 -0.5,0.5 0,0.275 0.225,0.5 0.5,0.5 0.275,0 0.5,-0.225 0.5,-0.5 z m -67.87591,-3.76666 c -0.987622,-0.98027 -1.102482,-0.86541 -0.559802,0.55979 0.375532,0.98622 0.934702,1.54122 1.242582,1.23333 0.30789,-0.30788 6.4e-4,-1.11479 -0.68278,-1.79312 z m 8.87591,-5.23334 c 0,-0.275 -0.225,-0.5 -0.5,-0.5 -0.275,0 -0.5,0.225 -0.5,0.5 0,0.275 0.225,0.5 0.5,0.5 0.275,0 0.5,-0.225 0.5,-0.5 z m 443,-1 c 0,-0.275 -0.225,-0.5 -0.5,-0.5 -0.275,0 -0.5,0.225 -0.5,0.5 0,0.275 0.225,0.5 0.5,0.5 0.275,0 0.5,-0.225 0.5,-0.5 z m 52,-1 c 0,-0.275 -0.225,-0.5 -0.5,-0.5 -0.275,0 -0.5,0.225 -0.5,0.5 0,0.275 0.225,0.5 0.5,0.5 0.275,0 0.5,-0.225 0.5,-0.5 z m 20,0 c 0,-0.275 -0.225,-0.5 -0.5,-0.5 -0.275,0 -0.5,0.225 -0.5,0.5 0,0.275 0.225,0.5 0.5,0.5 0.275,0 0.5,-0.225 0.5,-0.5 z m 2,-1 c 0,-0.275 -0.225,-0.5 -0.5,-0.5 -0.275,0 -0.5,0.225 -0.5,0.5 0,0.275 0.225,0.5 0.5,0.5 0.275,0 0.5,-0.225 0.5,-0.5 z m 5,-3 c 0,-0.275 -0.225,-0.5 -0.5,-0.5 -0.275,0 -0.5,0.225 -0.5,0.5 0,0.275 0.225,0.5 0.5,0.5 0.275,0 0.5,-0.225 0.5,-0.5 z m -97,-1 c 0,-0.275 -0.225,-0.5 -0.5,-0.5 -0.275,0 -0.5,0.225 -0.5,0.5 0,0.275 0.225,0.5 0.5,0.5 0.275,0 0.5,-0.225 0.5,-0.5 z m 5,0 c 0,-0.275 -0.225,-0.5 -0.5,-0.5 -0.275,0 -0.5,0.225 -0.5,0.5 0,0.275 0.225,0.5 0.5,0.5 0.275,0 0.5,-0.225 0.5,-0.5 z m -446.000006,-1 c 0,-0.275 -0.225,-0.5 -0.5,-0.5 -0.275,0 -0.5,0.225 -0.5,0.5 0,0.275 0.225,0.5 0.5,0.5 0.275,0 0.5,-0.225 0.5,-0.5 z m 7.000006,0 c 0,-0.275 -0.225,-0.5 -0.500002,-0.5 -0.275,0 -0.5,0.225 -0.5,0.5 0,0.275 0.225,0.5 0.5,0.5 0.275002,0 0.500002,-0.225 0.500002,-0.5 z m 353,-1 c 0,-0.275 -0.225,-0.5 -0.5,-0.5 -0.275,0 -0.5,0.225 -0.5,0.5 0,0.275 0.225,0.5 0.5,0.5 0.275,0 0.5,-0.225 0.5,-0.5 z m 80,0 c 0,-0.275 -0.225,-0.5 -0.5,-0.5 -0.275,0 -0.5,0.225 -0.5,0.5 0,0.275 0.225,0.5 0.5,0.5 0.275,0 0.5,-0.225 0.5,-0.5 z M 88.007995,279.29131 c -0.36667,-0.36667 -0.66667,-0.0667 -0.66667,0.66666 0,0.73334 0.3,1.03334 0.66667,0.66667 0.36666,-0.36667 0.36666,-0.96667 0,-1.33333 z m 450.333335,1.16666 c 0,-0.275 -0.225,-0.5 -0.5,-0.5 -0.275,0 -0.5,0.225 -0.5,0.5 0,0.275 0.225,0.5 0.5,0.5 0.275,0 0.5,-0.225 0.5,-0.5 z m -445.000006,-1 c 0,-0.275 -0.225,-0.5 -0.5,-0.5 -0.275,0 -0.5,0.225 -0.5,0.5 0,0.275 0.225,0.5 0.5,0.5 0.275,0 0.5,-0.225 0.5,-0.5 z m -5.999999,-3 c 0,-0.275 -0.225,-0.5 -0.5,-0.5 -0.275,0 -0.5,0.225 -0.5,0.5 0,0.275 0.225,0.5 0.5,0.5 0.275,0 0.5,-0.225 0.5,-0.5 z m 327.000005,-1 c 0,-0.275 -0.225,-0.5 -0.5,-0.5 -0.275,0 -0.5,0.225 -0.5,0.5 0,0.275 0.225,0.5 0.5,0.5 0.275,0 0.5,-0.225 0.5,-0.5 z M 87.007995,274.29131 c -0.36667,-0.36667 -0.96667,-0.36667 -1.33334,0 -0.36666,0.36666 -0.0667,0.66666 0.66667,0.66666 0.73333,0 1.03333,-0.3 0.66667,-0.66666 z m 387.333335,0.16666 c 0,-0.275 -0.225,-0.5 -0.5,-0.5 -0.275,0 -0.5,0.225 -0.5,0.5 0,0.275 0.225,0.5 0.5,0.5 0.275,0 0.5,-0.225 0.5,-0.5 z m -59,-1 c 0,-0.275 -0.225,-0.5 -0.5,-0.5 -0.275,0 -0.5,0.225 -0.5,0.5 0,0.275 0.225,0.5 0.5,0.5 0.275,0 0.5,-0.225 0.5,-0.5 z m -1,-5 c 0,-0.275 -0.225,-0.5 -0.5,-0.5 -0.275,0 -0.5,0.225 -0.5,0.5 0,0.275 0.225,0.5 0.5,0.5 0.275,0 0.5,-0.225 0.5,-0.5 z m 83,-3 c 0,-0.275 -0.225,-0.5 -0.5,-0.5 -0.275,0 -0.5,0.225 -0.5,0.5 0,0.275 0.225,0.5 0.5,0.5 0.275,0 0.5,-0.225 0.5,-0.5 z m -338,-1 c 0,-0.275 -0.225,-0.5 -0.5,-0.5 -0.275,0 -0.5,0.225 -0.5,0.5 0,0.275 0.225,0.5 0.5,0.5 0.275,0 0.5,-0.225 0.5,-0.5 z m 341,0 c 0,-0.275 -0.225,-0.5 -0.5,-0.5 -0.275,0 -0.5,0.225 -0.5,0.5 0,0.275 0.225,0.5 0.5,0.5 0.275,0 0.5,-0.225 0.5,-0.5 z m -345,-3 c 0,-0.275 -0.225,-0.5 -0.5,-0.5 -0.275,0 -0.5,0.225 -0.5,0.5 0,0.275 0.225,0.5 0.5,0.5 0.275,0 0.5,-0.225 0.5,-0.5 z m -2,-2 c 0,-0.275 -0.225,-0.5 -0.5,-0.5 -0.275,0 -0.5,0.225 -0.5,0.5 0,0.275 0.225,0.5 0.5,0.5 0.275,0 0.5,-0.225 0.5,-0.5 z m -2,-3 c 0,-0.275 -0.225,-0.5 -0.5,-0.5 -0.275,0 -0.5,0.225 -0.5,0.5 0,0.275 0.225,0.5 0.5,0.5 0.275,0 0.5,-0.225 0.5,-0.5 z m 376,-1.61803 c 0,-0.55 -0.45,-0.72189 -1,-0.38197 -0.55,0.33992 -1,1.06804 -1,1.61804 0,0.55 0.45,0.72188 1,0.38196 0.55,-0.33992 1,-1.06803 1,-1.61803 z m -378,-0.38197 c 0,-0.275 -0.225,-0.5 -0.5,-0.5 -0.275,0 -0.5,0.225 -0.5,0.5 0,0.275 0.225,0.5 0.5,0.5 0.275,0 0.5,-0.225 0.5,-0.5 z m -3,-1 c 0,-0.275 -0.225,-0.5 -0.5,-0.5 -0.275,0 -0.5,0.225 -0.5,0.5 0,0.275 0.225,0.5 0.5,0.5 0.275,0 0.5,-0.225 0.5,-0.5 z m 60,-1 c 0,-0.275 -0.225,-0.5 -0.5,-0.5 -0.275,0 -0.5,0.225 -0.5,0.5 0,0.275 0.225,0.5 0.5,0.5 0.275,0 0.5,-0.225 0.5,-0.5 z m 326,-2 c 0,-0.275 -0.225,-0.5 -0.5,-0.5 -0.275,0 -0.5,0.225 -0.5,0.5 0,0.275 0.225,0.5 0.5,0.5 0.275,0 0.5,-0.225 0.5,-0.5 z m -392,-1.94098 c 0,-0.24254 -0.51953,-0.76207 -1.15451,-1.15451 -0.7153,-0.44208 -0.88306,-0.27431 -0.44098,0.44098 0.39244,0.63498 0.91197,1.15451 1.15451,1.15451 0.24254,0 0.44098,-0.19844 0.44098,-0.44098 z m 389,-1.05902 c 0,-0.275 -0.225,-0.5 -0.5,-0.5 -0.275,0 -0.5,0.225 -0.5,0.5 0,0.275 0.225,0.5 0.5,0.5 0.275,0 0.5,-0.225 0.5,-0.5 z m 8,-1 c 0,-0.275 -0.225,-0.5 -0.5,-0.5 -0.275,0 -0.5,0.225 -0.5,0.5 0,0.275 0.225,0.5 0.5,0.5 0.275,0 0.5,-0.225 0.5,-0.5 z m -401,-2 c 0,-0.275 -0.225,-0.5 -0.5,-0.5 -0.275,0 -0.5,0.225 -0.5,0.5 0,0.275 0.225,0.5 0.5,0.5 0.275,0 0.5,-0.225 0.5,-0.5 z m -6,-4 c 0,-0.275 -0.225,-0.5 -0.5,-0.5 -0.275,0 -0.5,0.225 -0.5,0.5 0,0.275 0.225,0.5 0.5,0.5 0.275,0 0.5,-0.225 0.5,-0.5 z m 0,-3 c 0,-0.275 -0.225,-0.5 -0.5,-0.5 -0.275,0 -0.5,0.225 -0.5,0.5 0,0.275 0.225,0.5 0.5,0.5 0.275,0 0.5,-0.225 0.5,-0.5 z m -6,-1 c 0,-0.275 -0.225,-0.5 -0.5,-0.5 -0.275,0 -0.5,0.225 -0.5,0.5 0,0.275 0.225,0.5 0.5,0.5 0.275,0 0.5,-0.225 0.5,-0.5 z m -16,-12 c 0,-0.275 -0.225,-0.5 -0.5,-0.5 -0.275,0 -0.5,0.225 -0.5,0.5 0,0.275 0.225,0.5 0.5,0.5 0.275,0 0.5,-0.225 0.5,-0.5 z m 9,-2 c 0,-0.275 -0.225,-0.5 -0.5,-0.5 -0.275,0 -0.5,0.225 -0.5,0.5 0,0.275 0.225,0.5 0.5,0.5 0.275,0 0.5,-0.225 0.5,-0.5 z m -12,-1 c 0,-0.275 -0.225,-0.5 -0.5,-0.5 -0.275,0 -0.5,0.225 -0.5,0.5 0,0.275 0.225,0.5 0.5,0.5 0.275,0 0.5,-0.225 0.5,-0.5 z m 3,-4 c 0,-0.275 -0.225,-0.5 -0.5,-0.5 -0.275,0 -0.5,0.225 -0.5,0.5 0,0.275 0.225,0.5 0.5,0.5 0.275,0 0.5,-0.225 0.5,-0.5 z m 131,-17.94098 c 0,-0.24254 -0.51953,-0.76207 -1.15451,-1.15451 -0.7153,-0.44208 -0.88306,-0.27431 -0.44098,0.44098 0.39244,0.63498 0.91197,1.15451 1.15451,1.15451 0.24254,0 0.44098,-0.19844 0.44098,-0.44098 z m -111,-3.05902 c 0,-0.275 -0.225,-0.5 -0.5,-0.5 -0.275,0 -0.5,0.225 -0.5,0.5 0,0.275 0.225,0.5 0.5,0.5 0.275,0 0.5,-0.225 0.5,-0.5 z m 109,0 c 0,-0.275 -0.225,-0.5 -0.5,-0.5 -0.275,0 -0.5,0.225 -0.5,0.5 0,0.275 0.225,0.5 0.5,0.5 0.275,0 0.5,-0.225 0.5,-0.5 z m 35,-1 c 0,-0.275 -0.225,-0.5 -0.5,-0.5 -0.275,0 -0.5,0.225 -0.5,0.5 0,0.275 0.225,0.5 0.5,0.5 0.275,0 0.5,-0.225 0.5,-0.5 z m 179,-5 c 0,-0.275 -0.225,-0.5 -0.5,-0.5 -0.275,0 -0.5,0.225 -0.5,0.5 0,0.275 0.225,0.5 0.5,0.5 0.275,0 0.5,-0.225 0.5,-0.5 z m -319,-2 c 0,-0.275 -0.225,-0.5 -0.5,-0.5 -0.275,0 -0.5,0.225 -0.5,0.5 0,0.275 0.225,0.5 0.5,0.5 0.275,0 0.5,-0.225 0.5,-0.5 z m 143,0 c 0,-0.275 -0.225,-0.5 -0.5,-0.5 -0.275,0 -0.5,0.225 -0.5,0.5 0,0.275 0.225,0.5 0.5,0.5 0.275,0 0.5,-0.225 0.5,-0.5 z m -147,-8 c 0,-0.275 -0.225,-0.5 -0.5,-0.5 -0.275,0 -0.5,0.225 -0.5,0.5 0,0.275 0.225,0.5 0.5,0.5 0.275,0 0.5,-0.225 0.5,-0.5 z m 152,-1 c 0,-0.275 -0.225,-0.5 -0.5,-0.5 -0.275,0 -0.5,0.225 -0.5,0.5 0,0.275 0.225,0.5 0.5,0.5 0.275,0 0.5,-0.225 0.5,-0.5 z m 159,0 c 0,-0.275 -0.225,-0.5 -0.5,-0.5 -0.275,0 -0.5,0.225 -0.5,0.5 0,0.275 0.225,0.5 0.5,0.5 0.275,0 0.5,-0.225 0.5,-0.5 z m -2,-1 c 0,-0.275 -0.225,-0.5 -0.5,-0.5 -0.275,0 -0.5,0.225 -0.5,0.5 0,0.275 0.225,0.5 0.5,0.5 0.275,0 0.5,-0.225 0.5,-0.5 z m 4,0 c 0,-0.275 -0.225,-0.5 -0.5,-0.5 -0.275,0 -0.5,0.225 -0.5,0.5 0,0.275 0.225,0.5 0.5,0.5 0.275,0 0.5,-0.225 0.5,-0.5 z M 306.008,164.29131 c -0.36667,-0.36667 -0.66667,-0.0667 -0.66667,0.66666 0,0.73334 0.3,1.03334 0.66667,0.66667 0.36666,-0.36667 0.36666,-0.96667 0,-1.33333 z m 118.33333,-0.83334 c 0,-0.275 -0.225,-0.5 -0.5,-0.5 -0.275,0 -0.5,0.225 -0.5,0.5 0,0.275 0.225,0.5 0.5,0.5 0.275,0 0.5,-0.225 0.5,-0.5 z m 0,-4 c 0,-0.275 -0.225,-0.5 -0.5,-0.5 -0.275,0 -0.5,0.225 -0.5,0.5 0,0.275 0.225,0.5 0.5,0.5 0.275,0 0.5,-0.225 0.5,-0.5 z m -318,-2 c 0,-0.275 -0.225,-0.5 -0.5,-0.5 -0.275,0 -0.5,0.225 -0.5,0.5 0,0.275 0.225,0.5 0.5,0.5 0.275,0 0.5,-0.225 0.5,-0.5 z M 422.008,154.29131 c -0.36667,-0.36667 -0.66667,-0.0667 -0.66667,0.66666 0,0.73334 0.3,1.03334 0.66667,0.66667 0.36666,-0.36667 0.36666,-0.96667 0,-1.33333 z M 97.341324,150.45797 c 0,-0.275 -0.225,-0.5 -0.5,-0.5 -0.275,0 -0.5,0.225 -0.5,0.5 0,0.275 0.225,0.5 0.5,0.5 0.275,0 0.5,-0.225 0.5,-0.5 z M 121.008,146.29131 c -0.36667,-0.36667 -0.96667,-0.36667 -1.33334,0 -0.36666,0.36666 -0.0667,0.66666 0.66667,0.66666 0.73333,0 1.03333,-0.3 0.66667,-0.66666 z m 8,-10 c -0.36667,-0.36667 -0.66667,-0.0667 -0.66667,0.66666 0,0.73334 0.3,1.03334 0.66667,0.66667 0.36666,-0.36667 0.36666,-0.96667 0,-1.33333 z m 195,1 c -0.36667,-0.36667 -0.96667,-0.36667 -1.33334,0 -0.36666,0.36666 -0.0667,0.66666 0.66667,0.66666 0.73333,0 1.03333,-0.3 0.66667,-0.66666 z m 100.33333,-0.83334 c 0,-0.275 -0.225,-0.5 -0.5,-0.5 -0.275,0 -0.5,0.225 -0.5,0.5 0,0.275 0.225,0.5 0.5,0.5 0.275,0 0.5,-0.225 0.5,-0.5 z m 6,-9.99999 c 0,-0.275 -0.225,-0.5 -0.5,-0.5 -0.275,0 -0.5,0.225 -0.5,0.5 0,0.275 0.225,0.5 0.5,0.5 0.275,0 0.5,-0.225 0.5,-0.5 z m -137,-4 c 0,-0.275 -0.225,-0.5 -0.5,-0.5 -0.275,0 -0.5,0.225 -0.5,0.5 0,0.275 0.225,0.5 0.5,0.5 0.275,0 0.5,-0.225 0.5,-0.5 z m 3,0 c 0,-0.275 -0.225,-0.5 -0.5,-0.5 -0.275,0 -0.5,0.225 -0.5,0.5 0,0.275 0.225,0.5 0.5,0.5 0.275,0 0.5,-0.225 0.5,-0.5 z m -99,-1 c 0,-0.275 -0.225,-0.5 -0.5,-0.5 -0.275,0 -0.5,0.225 -0.5,0.5 0,0.275 0.225,0.5 0.5,0.5 0.275,0 0.5,-0.225 0.5,-0.5 z m 2.5,-1.5 c 0.33992,-0.55 0.39303,-1 0.11803,-1 -0.275,0 -0.77811,0.45 -1.11803,1 -0.33992,0.55 -0.39303,1 -0.11803,1 0.275,0 0.77811,-0.45 1.11803,-1 z m -26.5,-0.5 c 0,-0.275 -0.225,-0.5 -0.5,-0.5 -0.275,0 -0.5,0.225 -0.5,0.5 0,0.275 0.225,0.5 0.5,0.5 0.275,0 0.5,-0.225 0.5,-0.5 z m 39.66667,-5.16666 c -0.36667,-0.36667 -0.66667,-0.0667 -0.66667,0.66666 0,0.73334 0.3,1.03334 0.66667,0.66667 0.36666,-0.36667 0.36666,-0.96667 0,-1.33333 z m 207.33333,-0.83334 c 0,-0.275 -0.225,-0.5 -0.5,-0.5 -0.275,0 -0.5,0.225 -0.5,0.5 0,0.275 0.225,0.5 0.5,0.5 0.275,0 0.5,-0.225 0.5,-0.5 z m -212,-1 c 0,-0.275 -0.225,-0.5 -0.5,-0.5 -0.275,0 -0.5,0.225 -0.5,0.5 0,0.275 0.225,0.5 0.5,0.5 0.275,0 0.5,-0.225 0.5,-0.5 z m 233,-1 c 0,-0.275 -0.225,-0.5 -0.5,-0.5 -0.275,0 -0.5,0.225 -0.5,0.5 0,0.275 0.225,0.5 0.5,0.5 0.275,0 0.5,-0.225 0.5,-0.5 z m -88,-3 c 0,-0.275 -0.225,-0.5 -0.5,-0.5 -0.275,0 -0.5,0.225 -0.5,0.5 0,0.275 0.225,0.5 0.5,0.5 0.275,0 0.5,-0.225 0.5,-0.5 z m -142,-1 c 0,-0.275 -0.225,-0.5 -0.5,-0.5 -0.275,0 -0.5,0.225 -0.5,0.5 0,0.275 0.225,0.5 0.5,0.5 0.275,0 0.5,-0.225 0.5,-0.5 z m -58,-1 c 0,-0.275 -0.225,-0.5 -0.5,-0.5 -0.275,0 -0.5,0.225 -0.5,0.5 0,0.275 0.225,0.5 0.5,0.5 0.275,0 0.5,-0.225 0.5,-0.5 z m -3,-2 c 0,-0.275 -0.225,-0.5 -0.5,-0.5 -0.275,0 -0.5,0.225 -0.5,0.5 0,0.275 0.225,0.5 0.5,0.5 0.275,0 0.5,-0.225 0.5,-0.5 z m 3,-1 c 0,-0.275 -0.225,-0.5 -0.5,-0.5 -0.275,0 -0.5,0.225 -0.5,0.5 0,0.275 0.225,0.5 0.5,0.5 0.275,0 0.5,-0.225 0.5,-0.5 z m 292.5,-2.5 c 0.33992,-0.55 0.39303,-0.999998 0.11803,-0.999998 -0.275,0 -0.77811,0.449998 -1.11803,0.999998 -0.33992,0.55 -0.39303,1 -0.11803,1 0.275,0 0.77811,-0.45 1.11803,-1 z m 8,-1.999993 c 0.33992,-0.55 0.39303,-0.999998 0.11803,-0.999998 -0.275,0 -0.77811,0.449998 -1.11803,0.999998 -0.33992,0.549995 -0.39303,0.999995 -0.11803,0.999995 0.275,0 0.77811,-0.45 1.11803,-0.999995 z m -0.5,-2.5 c 0,-0.275 -0.225,-0.5 -0.5,-0.5 -0.275,0 -0.5,0.225 -0.5,0.5 0,0.275 0.225,0.5 0.5,0.5 0.275,0 0.5,-0.225 0.5,-0.5 z M 141.008,94.291327 c -0.36667,-0.36667 -0.66667,-0.0667 -0.66667,0.66666 0,0.73334 0.3,1.03334 0.66667,0.66667 0.36666,-0.36667 0.36666,-0.96667 0,-1.33333 z m 313.33333,0.16666 c 0,-0.275 -0.225,-0.5 -0.5,-0.5 -0.275,0 -0.5,0.225 -0.5,0.5 0,0.275 0.225,0.5 0.5,0.5 0.275,0 0.5,-0.225 0.5,-0.5 z m -90,-3 c 0,-0.275 -0.225,-0.5 -0.5,-0.5 -0.275,0 -0.5,0.225 -0.5,0.5 0,0.275 0.225,0.5 0.5,0.5 0.275,0 0.5,-0.225 0.5,-0.5 z m 73,-4 c 0,-0.275 -0.225,-0.5 -0.5,-0.5 -0.275,0 -0.5,0.225 -0.5,0.5 0,0.275 0.225,0.5 0.5,0.5 0.275,0 0.5,-0.225 0.5,-0.5 z m -37.61844,-3.05193 c 0.34149,-0.88993 0.17385,-1.29133 -0.39301,-0.94099 -0.5437,0.33603 -0.98855,1.0344 -0.98855,1.55194 0,0.51754 0.17686,0.94098 0.39301,0.94098 0.21616,0 0.661,-0.69837 0.98855,-1.55193 z m -265.38156,-1.94807 c 0,-0.275 -0.225,-0.5 -0.5,-0.5 -0.275,0 -0.5,0.225 -0.5,0.5 0,0.275 0.225,0.5 0.5,0.5 0.275,0 0.5,-0.225 0.5,-0.5 z M 123.008,76.291327 c -0.36667,-0.36667 -0.66667,-0.0667 -0.66667,0.66666 0,0.73334 0.3,1.03334 0.66667,0.66667 0.36666,-0.36667 0.36666,-0.96667 0,-1.33333 z m 302,0 c -0.36667,-0.36667 -0.66667,-0.0667 -0.66667,0.66666 0,0.73334 0.3,1.03334 0.66667,0.66667 0.36666,-0.36667 0.36666,-0.96667 0,-1.33333 z m -298.66667,-3.83334 c 0,-0.275 -0.225,-0.5 -0.5,-0.5 -0.275,0 -0.5,0.225 -0.5,0.5 0,0.275 0.225,0.5 0.5,0.5 0.275,0 0.5,-0.225 0.5,-0.5 z M 422.008,69.291327 c -0.36667,-0.36667 -0.66667,-0.0667 -0.66667,0.66666 0,0.73334 0.3,1.03334 0.66667,0.66667 0.36666,-0.36667 0.36666,-0.96667 0,-1.33333 z m -303.66667,-2.83334 c 0,-0.275 -0.225,-0.5 -0.5,-0.5 -0.275,0 -0.5,0.225 -0.5,0.5 0,0.275 0.225,0.5 0.5,0.5 0.275,0 0.5,-0.225 0.5,-0.5 z m 3,0 c 0,-0.275 -0.225,-0.5 -0.5,-0.5 -0.275,0 -0.5,0.225 -0.5,0.5 0,0.275 0.225,0.5 0.5,0.5 0.275,0 0.5,-0.225 0.5,-0.5 z m 259,0 c 0,-0.275 -0.225,-0.5 -0.5,-0.5 -0.275,0 -0.5,0.225 -0.5,0.5 0,0.275 0.225,0.5 0.5,0.5 0.275,0 0.5,-0.225 0.5,-0.5 z m -2.33333,-2.16666 c -0.36667,-0.36667 -0.96667,-0.36667 -1.33334,0 -0.36666,0.36666 -0.0667,0.66666 0.66667,0.66666 0.73333,0 1.03333,-0.3 0.66667,-0.66666 z m 15.33333,-2.83334 c 0,-0.275 -0.225,-0.500004 -0.5,-0.500004 -0.275,0 -0.5,0.225004 -0.5,0.500004 0,0.275 0.225,0.5 0.5,0.5 0.275,0 0.5,-0.225 0.5,-0.5 z m -27,-3.000004 c 0,-0.275 -0.225,-0.5 -0.5,-0.5 -0.275,0 -0.5,0.225 -0.5,0.5 0,0.275 0.225,0.5 0.5,0.5 0.275,0 0.5,-0.225 0.5,-0.5 z m 42,-15.99998 c 0,-0.275 -0.225,-0.5 -0.5,-0.5 -0.275,0 -0.5,0.225 -0.5,0.5 0,0.27499 0.225,0.49999 0.5,0.49999 0.275,0 0.5,-0.225 0.5,-0.49999 z m 3,-1 c 0,-0.275 -0.225,-0.5 -0.5,-0.5 -0.275,0 -0.5,0.225 -0.5,0.5 0,0.275 0.225,0.5 0.5,0.5 0.275,0 0.5,-0.225 0.5,-0.5 z m -1,-2 c 0,-0.275 -0.225,-0.5 -0.5,-0.5 -0.275,0 -0.5,0.225 -0.5,0.5 0,0.275 0.225,0.5 0.5,0.5 0.275,0 0.5,-0.225 0.5,-0.5 z m 8,-12.50001 c 0,-0.55 -0.19844,-1 -0.44098,-1 -0.24254,0 -0.7191,0.45 -1.05902,1 -0.33992,0.55 -0.14148,1 0.44098,1 0.58246,0 1.05902,-0.45 1.05902,-1 z m -97,521.499977 c 0,-0.275 0.225,-0.5 0.5,-0.5 0.275,0 0.5,0.225 0.5,0.5 0,0.275 -0.225,0.5 -0.5,0.5 -0.275,0 -0.5,-0.225 -0.5,-0.5 z m -237.000005,-404 c 0,-0.275 0.225,-0.5 0.5,-0.5 0.275,0 0.5,0.225 0.5,0.5 0,0.275 -0.225,0.5 -0.5,0.5 -0.275,0 -0.5,-0.225 -0.5,-0.5 z M 111.34133,51.457993 c 0,-0.275 0.225,-0.5 0.5,-0.5 0.275,0 0.5,0.225 0.5,0.5 0,0.275 -0.225,0.5 -0.5,0.5 -0.275,0 -0.5,-0.225 -0.5,-0.5 z m 318,-49.9999994 c 0,-0.275 0.225,-0.50000001 0.5,-0.50000001 0.275,0 0.5,0.22500001 0.5,0.50000001 0,0.275 -0.225,0.5 -0.5,0.5 -0.275,0 -0.5,-0.225 -0.5,-0.5 z"
     id="path5"
     inkscape:transform-center-x="-75.530387"
     inkscape:transform-center-y="5.9944751" />
  <g
     inkscape:groupmode="layer"
     inkscape:label="Image"
     id="g1" />
</svg>
