<?xml version="1.0" encoding="UTF-8" standalone="no"?>
<svg
   width="200"
   height="200"
   viewBox="0 0 100 100"
   version="1.1"
   id="svg3"
   sodipodi:docname="logo1.svg"
   xml:space="preserve"
   inkscape:version="1.4.2 (f4327f4, 2025-05-13)"
   xmlns:inkscape="http://www.inkscape.org/namespaces/inkscape"
   xmlns:sodipodi="http://sodipodi.sourceforge.net/DTD/sodipodi-0.dtd"
   xmlns:xlink="http://www.w3.org/1999/xlink"
   xmlns="http://www.w3.org/2000/svg"
   xmlns:svg="http://www.w3.org/2000/svg"><sodipodi:namedview
     id="namedview3"
     pagecolor="#ffffff"
     bordercolor="#000000"
     borderopacity="0.25"
     inkscape:showpageshadow="2"
     inkscape:pageopacity="0.0"
     inkscape:pagecheckerboard="0"
     inkscape:deskcolor="#d1d1d1"
     inkscape:zoom="1.4142136"
     inkscape:cx="72.478445"
     inkscape:cy="120.56171"
     inkscape:window-width="1366"
     inkscape:window-height="745"
     inkscape:window-x="-8"
     inkscape:window-y="-8"
     inkscape:window-maximized="1"
     inkscape:current-layer="g5" /><defs
     id="defs2"><linearGradient
       id="linearGradient606"
       inkscape:collect="always"><stop
         style="stop-color:#2ee4c1;stop-opacity:1;"
         offset="0"
         id="stop606" /><stop
         style="stop-color:#1df577;stop-opacity:1;"
         offset="1"
         id="stop607" /></linearGradient><linearGradient
       id="linearGradient519"
       inkscape:swatch="gradient"><stop
         style="stop-color:#07cac1;stop-opacity:1;"
         offset="0"
         id="stop518" /><stop
         style="stop-color:#5cfff8;stop-opacity:1;"
         offset="1"
         id="stop519" /></linearGradient><linearGradient
       id="linearGradient517"
       inkscape:collect="always"><stop
         style="stop-color:#0ff7ec;stop-opacity:1;"
         offset="0"
         id="stop516" /><stop
         style="stop-color:#23ffe3;stop-opacity:1;"
         offset="1"
         id="stop517" /></linearGradient><linearGradient
       id="kyronGradient"
       x1="0"
       y1="100"
       x2="100"
       y2="0"
       gradientUnits="userSpaceOnUse"><stop
         offset="0%"
         stop-color="#8A2BE2"
         id="stop1" /><stop
         offset="100%"
         stop-color="#00FFD1"
         id="stop2" /></linearGradient><linearGradient
       inkscape:collect="always"
       xlink:href="#linearGradient517"
       id="linearGradient261"
       x1="-368.50133"
       y1="34.821372"
       x2="-143.77812"
       y2="34.821372"
       gradientUnits="userSpaceOnUse" /><linearGradient
       inkscape:collect="always"
       xlink:href="#linearGradient606"
       id="linearGradient607"
       x1="-283.37784"
       y1="9.1280537"
       x2="-107.40944"
       y2="-44.852253"
       gradientUnits="userSpaceOnUse"
       gradientTransform="matrix(1.0000416,-0.00116914,5.1567422e-4,0.98551341,-2.276397,4.3226688)" /></defs><!-- open orbit ring (280°) → shifted & rotated --><!-- 3-point star (centered) --><g
     id="g5"
     transform="matrix(0.23556876,0.0185132,0.00838556,0.22939362,104.67842,44.652313)"
     style="fill:url(#linearGradient261)"><path
       id="path5"
       style="fill:url(#linearGradient607);fill-opacity:1;stroke-width:1.19904;stroke-dasharray:none"
       inkscape:transform-center-x="-7.4628603"
       inkscape:transform-center-y="-27.805558"
       d="m -229.03601,-140.77238 c -10.51773,1.71912 -20.99495,5.0625 -31.12748,10.22162 -77.1236,39.268656 -80.71237,140.619088 -6.75812,190.853195 1.1948,0.81158 6.80678,4.862272 12.47119,9.000115 5.66443,4.13784 20.21799,14.716008 32.33834,23.512511 29.05701,21.088459 32.14572,23.843799 39.70625,35.390119 11.52344,17.59834 15.55038,42.06749 10.13645,61.59108 -0.18237,0.65768 -0.21532,1.01712 -0.12892,1.12013 0.002,0.002 0.0127,0.0114 0.015,0.0133 0.003,0.003 0.0189,0.0106 0.0253,0.0121 0.66527,0.13857 4.75468,-6.98086 7.98762,-14.27157 13.4561,-30.34527 11.81058,-45.58264 -11.28659,-104.49998 -18.92784,-48.281983 -19.77359,-52.10922 -15.29512,-69.0488503 9.53066,-36.0493597 56.37563,-52.5661687 85.39149,-30.1076157 4.08796,3.164111 4.03853,3.22722 4.33577,-5.845649 2.113283,-64.503743 -56.56434,-112.916605 -117.29056,-109.126465 -3.50342,0.21864 -7.01458,0.61278 -10.5205,1.18583 z M -312.03075,58.6401 c -2.46081,0.395535 -4.97805,2.602582 -8.12464,6.838902 -5.2305,7.041911 -8.12174,8.784 -16.52484,9.972492 -19.13378,2.70619 -28.23239,15.558982 -27.19026,38.401836 0.76516,16.76507 3.02197,20.97407 12.53045,23.33582 6.94391,1.72475 26.15032,-0.63954 32.5804,-4.00907 14.70069,-7.70367 17.52359,-16.591 15.66874,-49.326607 l -1.09599,-19.323768 c -8.7e-4,-0.0089 -0.003,-0.01591 -0.005,-0.02494 -0.0489,-0.237879 -0.11482,-0.467287 -0.20137,-0.689741 -0.0649,-0.217337 -0.16102,-0.421803 -0.26057,-0.620887 -0.10168,-0.199397 -0.19771,-0.399503 -0.29534,-0.601133 -0.12546,-0.19595 -0.24277,-0.39649 -0.34036,-0.610733 -0.16807,-0.242425 -0.32739,-0.495197 -0.44672,-0.77093 -0.005,-0.01104 -0.0116,-0.02269 -0.0152,-0.03382 l -0.95055,-0.737455 c -1.70236,-1.320145 -3.26326,-1.956679 -4.8348,-1.857746 -0.16368,0.01035 -0.32954,0.03136 -0.49358,0.05774 z m -35.92105,33.703289 c 0.1889,-0.0266 0.37859,-0.04661 0.56842,-0.06213 0.40492,-0.03622 0.81108,-0.06504 1.21246,-0.05206 0.40553,0.0241 0.80382,0.08587 1.17519,0.228537 0.40695,0.142077 0.78077,0.343846 1.09435,0.637398 0.36691,0.354878 0.68219,0.754655 0.82596,1.274513 0.0151,0.06065 0.0297,0.122577 0.0417,0.183752 0.20009,0.351407 0.30933,0.665447 0.34345,0.932257 0.14702,0.374814 0.21894,0.774218 0.18653,1.217935 -0.0513,0.561488 -0.12554,1.127191 -0.35819,1.665407 -0.19258,0.410939 -0.41108,0.819534 -0.67223,1.194394 -0.31481,0.462818 -0.68321,0.896298 -1.12608,1.236848 -0.39858,0.27434 -0.74201,0.64576 -1.21026,0.78766 -0.56892,0.18304 -1.13061,0.23996 -1.70492,0.22212 -0.50285,-0.0179 -1.00311,-0.0737 -1.45515,-0.26955 -0.35983,-0.15357 -0.72368,-0.29105 -1.0482,-0.51042 -0.54413,-0.34035 -0.93901,-0.76934 -1.10202,-1.433553 -0.0411,-0.257381 -0.0606,-0.518171 -0.0625,-0.778958 -0.028,-0.128218 -0.0489,-0.260499 -0.0537,-0.401934 -0.002,-0.07702 -0.003,-0.15241 -0.002,-0.229634 -0.0169,-0.06342 -0.0326,-0.128986 -0.0469,-0.193326 -0.099,-0.38958 -0.14249,-0.793451 -0.0665,-1.212758 0.0607,-0.343389 0.15081,-0.683743 0.24464,-1.022452 0.0952,-0.320786 0.19092,-0.641042 0.32517,-0.95094 0.14741,-0.297398 0.29085,-0.595897 0.4707,-0.87748 0.20451,-0.279784 0.4375,-0.547216 0.68617,-0.787384 0.34717,-0.321274 0.7281,-0.570848 1.17128,-0.690728 0.18847,-0.04806 0.3741,-0.08084 0.56299,-0.107425 z m 92.07566,16.751881 c -42.98586,5.58736 -64.19096,43.6571 -49.62423,89.09032 5.71296,17.81849 5.22317,20.34219 -4.31541,22.34264 -7.31095,1.53325 -11.98102,5.40187 -13.28034,11.00557 -0.25697,1.10829 -0.62192,2.6773 -0.80979,3.4807 -0.49968,2.13661 84.58379,-2.32122 92.64963,-4.85394 72.06964,-22.63023 50.0773,-130.774518 -24.61986,-121.06529 z m -76.37777,37.73384 c -1.44831,0.24813 -2.95411,0.86404 -4.67412,1.84176 -9.23487,5.24939 -7.4052,18.67413 2.97725,21.8436 13.14025,4.01132 21.18827,-15.11118 9.21151,-21.88768 -2.84338,-1.60879 -5.1008,-2.2112 -7.51464,-1.79768 z" /></g></svg>
